<svg width="30" height="30" viewBox="0 0 30 30" fill="none" xmlns="http://www.w3.org/2000/svg">
<g clip-path="url(#clip0_44_1662)">
<path d="M11.0527 0H0V2.34105L11.0527 9.58242V0Z" fill="#41479B"/>
<path d="M0 8.00378V11.0527H4.65346L0 8.00378Z" fill="#41479B"/>
<path d="M0 18.9474V21.9962L4.65346 18.9474H0Z" fill="#41479B"/>
<path d="M30 2.34105V0H18.9474V9.58242L30 2.34105Z" fill="#41479B"/>
<path d="M30 21.9962V18.9474H25.3466L30 21.9962Z" fill="#41479B"/>
<path d="M18.9474 20.4176V30H30V27.659L18.9474 20.4176Z" fill="#41479B"/>
<path d="M30 11.0527V8.00378L25.3466 11.0527H30Z" fill="#41479B"/>
<path d="M0 27.659V30H11.0527V20.4176L0 27.659Z" fill="#41479B"/>
<path d="M30 27.6589V25.3194L20.1835 18.9474H23.0836L30 23.4368V21.9962L25.3465 18.9474H30V17.3684H17.3684V30H18.9473V20.4176L30 27.6589Z" fill="#F5F5F5"/>
<path d="M0 17.3684V18.9474H4.65346L0 21.9962V24.2111L8.10908 18.9474H11.0092L0 26.0937V27.6589L11.0527 20.4176V30H12.6316V17.3684H0Z" fill="#F5F5F5"/>
<path d="M12.6316 0H11.0527V9.58242L0 2.34105V4.90307L9.47367 11.0527H6.57352L0 6.78557V8.00379L4.65346 11.0527H0V12.6316H12.6316V0Z" fill="#F5F5F5"/>
<path d="M30 12.6316V11.0527H25.3465L30 8.00379V5.76059L21.8475 11.0527H18.9473L30 3.87803V2.34105L18.9473 9.58242V0H17.3684V12.6316H30Z" fill="#F5F5F5"/>
<path d="M30 17.3684V12.6316H17.3684V0H12.6316V12.6316H0V17.3684H12.6316V30H17.3684V17.3684H30Z" fill="#FF4B55"/>
<path d="M8.10908 18.9474L0 24.2111V26.0937L11.0092 18.9474H8.10908Z" fill="#FF4B55"/>
<path d="M20.1835 18.9474L30 25.3194V23.4368L23.0836 18.9474H20.1835Z" fill="#FF4B55"/>
<path d="M9.47367 11.0527L0 4.90308V6.78558L6.57352 11.0527H9.47367Z" fill="#FF4B55"/>
<path d="M21.8475 11.0527L30 5.76061V3.87805L18.9474 11.0527H21.8475Z" fill="#FF4B55"/>
</g>
<defs>
<clipPath id="clip0_44_1662">
<rect width="30" height="30" rx="15" fill="white"/>
</clipPath>
</defs>
</svg>
