<svg width="37" height="44" viewBox="0 0 37 44" fill="none" xmlns="http://www.w3.org/2000/svg">
<path d="M6.65245 14.0259C7.74807 14.0257 8.85064 13.9954 9.94544 14.0391L10.0241 14.0372C10.0792 14.1062 10.0625 14.2065 10.0617 14.299C10.0373 15.3167 10.0519 16.3397 10.0519 17.358L10.0532 22.6984L10.0541 25.7004C10.0535 26.6801 10.0359 27.6583 10.1646 28.6296C10.26 29.0613 10.3258 29.4924 10.4489 29.9165C10.775 31.0404 11.3091 31.9926 12.0694 32.7648C12.2174 32.915 12.3714 33.0747 12.5376 33.1961C12.8155 33.5163 13.3046 33.7838 13.6599 33.9767C15.4212 34.9014 17.3675 35.0946 19.272 34.9902C21.5201 34.8672 23.6941 34.16 25.258 32.1234C25.845 31.2436 26.2586 30.2957 26.4766 29.1992C26.6936 28.1079 26.6938 27.0584 26.6931 25.9451L26.6924 23.759L26.6926 17.0701L28.95 17.0747C29.2658 17.0749 29.7951 17.1288 30.0848 17.0393L30.0827 17.0659C30.0442 17.519 30.0662 17.9962 30.0662 18.4524C30.0662 19.1294 30.0575 19.8087 30.0694 20.4854C30.8515 20.4725 31.634 20.4785 32.416 20.4778C32.7693 20.4776 33.128 20.4927 33.4806 20.4737L33.4813 18.2428C33.4811 17.861 33.4978 17.4665 33.4744 17.0861C33.7447 17.015 34.1477 17.0669 34.4343 17.0678C35.2154 17.0703 35.9983 17.0873 36.7792 17.0687C36.7622 17.6234 36.7468 18.2001 36.773 18.7541C36.7542 19.5077 36.7682 20.2649 36.7682 21.019V25.1622C36.7691 26.3104 36.801 27.473 36.7427 28.619C36.6459 30.5226 36.2273 32.6294 35.4402 34.3041C33.6254 38.4386 30.1784 41.2538 26.4972 42.6281C25.2777 43.0835 24.01 43.4439 22.7408 43.6343C20.3318 44.0722 17.7387 44.0965 15.3129 43.8153C14.618 43.7348 13.9357 43.5918 13.2448 43.4845C12.9791 43.3886 12.6855 43.3588 12.4135 43.278C11.8715 43.178 11.3144 42.9825 10.788 42.8004C8.08701 41.8654 5.48741 40.224 3.49729 37.8341C1.37796 35.2891 0.267292 32.1759 0.0525038 28.6195C-0.0308835 27.2385 0.0123358 25.8286 0.0133223 24.4439L0.0188508 17.4493L4.44217 17.452C5.18116 17.4525 5.92201 17.4676 6.66071 17.4454C6.63556 16.3075 6.6533 15.1645 6.65245 14.0259Z" fill="url(#paint0_linear_2001_308)"/>
<path d="M9.94548 14.0391L10.0241 14.0372C10.0793 14.1062 10.0626 14.2065 10.0617 14.299C10.0373 15.3167 10.0519 16.3396 10.0519 17.358L10.0533 22.6984L10.0541 25.7004C10.0535 26.6801 10.0359 27.6583 10.1646 28.6296C10.26 29.0613 10.3259 29.4924 10.4489 29.9165C10.775 31.0404 11.3091 31.9926 12.0694 32.7648C12.2174 32.915 12.3715 33.0747 12.5377 33.1961C12.8155 33.5163 13.3047 33.7838 13.66 33.9767C15.4213 34.9014 17.3675 35.0946 19.272 34.9902C21.5202 34.8672 23.6942 34.16 25.258 32.1234L25.3757 32.0738L25.3865 32.0936L25.3532 32.1312C25.3195 32.1695 25.292 32.1982 25.2748 32.2502C25.231 32.3817 24.626 32.9667 24.4941 33.158L24.5113 33.1428C24.4709 33.2045 24.4556 33.252 24.3909 33.275L24.3595 33.2399C24.2718 33.2903 24.2028 33.3676 24.1147 33.419C23.9378 33.5223 23.8277 33.7627 23.7144 33.8297C23.6758 33.8526 23.5871 33.8448 23.5439 33.843L23.5258 33.8574C23.3627 33.9861 23.1769 34.082 23.0009 34.1834L23.0649 34.1598C22.909 34.2566 22.7534 34.3467 22.5917 34.4289C22.566 34.3908 22.5777 34.4103 22.5559 34.3708C22.441 34.3841 22.3192 34.4511 22.21 34.4961C22.2175 34.4995 22.251 34.5179 22.2581 34.5147L22.2751 34.5275C22.1251 34.631 21.3153 34.92 21.1666 34.8778C21.1657 34.862 21.1657 34.8459 21.1641 34.8301C21.163 34.8193 21.16 34.8087 21.1579 34.798L20.9836 34.8505L20.9822 34.8709L21.1203 34.9039C20.7774 35.051 19.1066 35.2212 18.6887 35.1639L18.8073 35.14C18.4932 35.1035 18.0929 35.0659 17.7798 35.1356L17.9039 35.1584C17.4641 35.1889 16.5962 35.1299 16.1748 35.0063L16.1743 34.9874C16.2149 34.9787 16.3541 34.9629 16.3778 34.9331C16.2761 34.9255 16.1758 34.9131 16.0747 34.8989L16.0783 34.9193L16.1091 34.9356C16.0777 34.9735 16.0547 34.9709 16.01 34.9709C15.9348 34.9709 15.8448 34.9384 15.7879 34.881C15.8009 34.8796 15.814 34.8783 15.827 34.8769C15.8623 34.8725 15.8929 34.8668 15.927 34.8567C15.8684 34.8294 15.8312 34.8399 15.7703 34.8473C15.7633 34.8416 15.7568 34.8349 15.7494 34.8301C15.6279 34.7507 15.0543 34.6541 14.8955 34.6511L14.8887 34.6294L14.949 34.6156C14.7692 34.502 14.527 34.4582 14.3318 34.38C14.0665 34.2733 13.8143 34.1437 13.5539 34.0247C13.5258 34.0118 13.5376 34.0182 13.509 33.9907C13.4771 33.9526 13.4443 33.9354 13.4003 33.9283C13.2891 33.9102 13.1704 33.8788 13.068 33.823C12.6072 33.5718 11.7268 32.7178 11.3924 32.2688C11.2426 32.0679 10.5733 31.045 10.5847 30.8385C10.761 31.0055 10.8065 31.2145 10.9243 31.4285C11.0604 31.6758 11.2156 31.9144 11.394 32.1213L11.4121 32.1156C11.3429 31.9444 11.1287 31.7121 11.025 31.5168C10.9135 31.3069 10.7786 31.0833 10.6882 30.8601C10.4329 30.2297 10.168 29.3481 10.1022 28.6601L10.0891 28.6564C10.0503 28.8039 10.1219 28.9879 10.1461 29.1361C10.2128 29.5442 10.3311 29.9599 10.4554 30.3485C10.4981 30.4822 10.6261 30.6896 10.6315 30.8181L10.5951 30.8107C10.5295 30.7479 10.4612 30.6325 10.4413 30.5339C10.405 30.354 10.3192 30.1691 10.2603 29.9966C10.2002 29.8206 10.1538 29.6378 10.1099 29.4554C9.87726 28.4897 9.85934 27.5739 9.84315 26.582C9.83968 26.3691 9.79603 25.8495 9.85191 25.6616C9.8994 25.5019 9.89143 25.3723 9.88836 25.2042L9.87802 25.1932C9.87668 25.2484 9.88857 25.3092 9.85427 25.3482C9.82982 25.2868 9.83427 25.3141 9.83239 25.2475C9.81899 24.777 9.83716 24.3006 9.83525 23.8291L9.83762 19.6726L9.84191 18.2267C9.84149 17.8787 9.8078 17.5119 9.86026 17.168C9.86994 17.1047 9.8774 17.0487 9.87829 16.9843L9.84597 16.9836L9.82498 16.9441C9.82695 16.8849 9.82124 16.8283 9.84732 16.7767L9.88478 16.7952L9.9116 16.7721L9.90086 16.6904L9.85411 16.6743C9.83872 16.6253 9.83952 16.6427 9.84026 16.5957C9.8437 16.3704 9.81761 16.1275 9.85565 15.907L9.88098 15.9059C9.89217 15.9295 9.89857 15.9412 9.90706 15.9646C9.94452 16.0687 9.9773 16.2564 9.93571 16.3635C9.93153 16.3743 9.92548 16.3837 9.92039 16.3938C9.96177 16.5149 9.95083 20.7818 9.94599 21.3064C9.94399 21.5243 9.92422 21.7437 9.92614 21.9609C9.9389 23.405 9.96824 24.8548 9.94833 26.2986C9.9444 26.5829 9.97404 26.8685 9.97347 27.1541C10.0296 26.7288 9.99003 26.2408 9.99006 25.807L9.9901 23.0496L9.9898 16.9395C9.98966 16.0864 10.0082 15.2279 9.99659 14.3755C9.99577 14.3156 9.99974 14.2326 9.9637 14.1897L9.98723 14.2239L9.95757 14.197L9.91837 14.2979C9.74223 14.0967 9.75914 14.1967 9.57759 14.0835C9.65621 14.0384 9.82734 14.06 9.9202 14.0437L9.94548 14.0391Z" fill="url(#paint1_linear_2001_308)"/>
<path d="M22.3418 43.5336C25.6447 43.0046 28.7366 41.8007 31.4637 39.4745C33.6759 37.5877 35.5196 34.6142 36.1727 31.4508C36.2268 31.1886 36.3053 30.9337 36.3404 30.6664C36.3417 30.6547 36.3431 30.6433 36.3445 30.6316L36.3649 30.6249C36.3966 30.7353 36.3346 30.8039 36.3654 30.9183C36.2376 31.159 36.1993 31.6515 36.1288 31.9451C35.9772 32.5762 35.4957 34.0315 35.2124 34.5252C35.2053 34.5374 35.1842 34.572 35.1775 34.586C35.1555 34.633 35.1406 34.6706 35.156 34.7225C35.2736 34.6057 35.3216 34.3341 35.4209 34.1827L35.4402 34.1875V34.3041C33.6254 38.4386 30.1784 41.2538 26.4972 42.6281C25.2777 43.0835 24.01 43.4439 22.7408 43.6343C20.3318 44.0722 17.7387 44.0965 15.3129 43.8153C14.618 43.7347 13.9357 43.5918 13.2448 43.4845C12.9791 43.3886 12.6855 43.3588 12.4135 43.278C12.3893 43.2578 12.3308 43.2186 12.3193 43.1904L12.3623 43.2344L12.3778 43.1849C13.3257 43.484 14.3424 43.6187 15.319 43.7419C15.5402 43.7698 15.7923 43.8297 16.0137 43.8109C16.2832 43.7882 16.5581 43.8724 16.8346 43.8494C16.633 43.7987 16.2759 43.8428 16.1346 43.7508C16.0862 43.7903 16.044 43.7949 15.9841 43.782C15.9633 43.7774 15.9435 43.7678 15.923 43.7618C15.7794 43.7203 15.5955 43.7334 15.4455 43.7175C15.0904 43.6799 14.7388 43.6155 14.3853 43.5625C14.2603 43.5439 14.1209 43.5517 14 43.5161C13.9519 43.5021 13.9418 43.4978 13.9102 43.451C13.9427 43.4124 13.9262 43.4177 13.9684 43.4163C14.0115 43.4152 14.0441 43.4308 14.0845 43.4462C14.4043 43.5682 14.7935 43.5744 15.127 43.6157C15.4013 43.6478 15.6759 43.6759 15.9508 43.6999C16.2257 43.7239 16.5008 43.7439 16.7761 43.76C17.0514 43.776 17.3268 43.788 17.6024 43.796C17.8778 43.8041 18.1534 43.8082 18.4292 43.8082C18.7047 43.8082 18.9803 43.8041 19.2559 43.796C19.5314 43.7879 19.8068 43.7758 20.0822 43.7598C20.3575 43.7437 20.6326 43.7236 20.9074 43.6994C21.1822 43.6754 21.4568 43.6473 21.7312 43.6152C21.8862 43.5955 22.2101 43.5939 22.3418 43.5336Z" fill="url(#paint2_linear_2001_308)"/>
<path d="M0.0391166 6.8359C1.92223 6.88334 3.81171 6.84758 5.69562 6.84748L8.46594 6.84705C8.99565 6.84689 9.52917 6.86019 10.0585 6.83911C10.0563 7.00334 10.0476 7.17046 10.065 7.33368C10.0248 7.76958 10.0516 8.24282 10.0519 8.68242C10.0522 9.27611 10.0349 9.87959 10.059 10.4721C10.0556 10.5462 10.0681 10.5633 10.0232 10.619L9.9354 10.6189L6.64475 10.6266L6.64803 14.0312C5.50823 14.0003 4.3617 14.0139 3.22158 14.0312C3.26427 12.8982 3.22406 11.755 3.24124 10.6203L0.00959256 10.627C0.014043 10.1353 -0.0295662 7.01605 0.0391166 6.8359Z" fill="#3D6A4A"/>
<path d="M0.0391006 6.8359C1.92221 6.88334 3.8117 6.84758 5.69561 6.84748L8.46593 6.84705C8.99564 6.84689 9.52916 6.86019 10.0585 6.83911C10.0563 7.00334 10.0476 7.17046 10.065 7.33368C10.0248 7.76958 10.0516 8.24282 10.0518 8.68242C10.0522 9.27611 10.0349 9.87959 10.0589 10.4721C10.0556 10.5462 10.0681 10.5633 10.0232 10.619L9.93538 10.6189C9.70011 10.5375 9.30501 10.5894 9.04801 10.5898C8.319 10.5909 7.57454 10.6309 6.84789 10.5739C7.01604 10.5167 7.26086 10.5454 7.43968 10.537C7.30169 10.4649 7.01978 10.5994 6.89242 10.5117C7.35806 10.417 9.55898 10.5867 9.75321 10.4357C9.82559 10.3794 9.89257 10.2889 9.90689 10.1853C9.90866 10.1726 9.90868 10.1597 9.90955 10.1469L9.93004 10.1267L9.94965 10.1506C9.94073 10.1987 9.93981 10.2152 9.94612 10.2661L9.99516 10.2384C9.95837 9.48523 9.98833 8.71146 9.99195 7.95657C9.99337 7.65924 10.0189 7.32693 9.98044 7.03424L9.92304 7.03263C9.9279 7.0731 9.93444 7.10696 9.94524 7.14619C9.94889 7.1594 9.95284 7.1725 9.95665 7.18567L9.91799 7.18996C9.8812 7.28046 9.92054 7.37341 9.89622 7.47265L9.8773 7.46116C9.87574 7.40151 9.87452 7.34088 9.86913 7.28151C9.8608 7.18982 9.82928 7.11196 9.76464 7.05787C9.68542 6.99159 9.58061 6.97065 9.48589 6.9656C9.1679 6.94863 8.84829 6.99141 8.52977 6.99049L5.25869 6.99196L2.0855 6.9912C1.45384 6.9962 0.846501 6.96457 0.220144 7.08771C0.204384 7.01999 0.203903 7.05319 0.219915 6.98815L0.295893 6.97147C0.254096 6.92764 0.202893 6.94399 0.148388 6.94369C0.0246027 7.14479 0.142652 7.80569 0.08872 8.07306L0.0830308 7.991L0.115675 7.96914L0.0830539 7.96432C0.0859673 7.64514 0.126457 7.19044 0.0520846 6.88529C0.0480472 6.86873 0.0434363 6.85237 0.0391006 6.8359Z" fill="#3D6A4A"/>
<path d="M0.0853898 10.3436C0.092203 10.369 0.105944 10.3904 0.117712 10.413L0.194975 10.4167L0.173755 10.3992C0.617922 10.5401 1.12391 10.4873 1.58042 10.4851C2.08738 10.4777 2.59432 10.4794 3.10124 10.4902C3.14021 10.5067 3.14388 10.4978 3.16451 10.5436C3.15827 10.5475 3.15235 10.5522 3.14581 10.5553C3.04994 10.6012 0.166391 10.6167 0.0836004 10.5716C0.0571963 10.4903 0.0752962 10.4289 0.0853898 10.3436Z" fill="#3D6A4A"/>
<path d="M9.93195 7.94838C9.95868 8.0787 9.94312 8.23664 9.94592 8.37217C9.95613 8.8636 9.96677 9.32433 9.93537 9.81396L9.91846 9.80969C9.91195 9.76285 9.90612 9.72504 9.91236 9.6774C9.91369 9.66723 9.91591 9.65726 9.91768 9.64716C9.91052 9.52342 9.87923 9.53021 9.85893 9.4396C9.81165 9.22873 9.8142 8.22588 9.85028 8.00921L9.87382 7.99077L9.90782 8.07666L9.93195 7.94838Z" fill="#3D6A4A"/>
<path d="M30.0857 0.0150415L32.2758 0.0108201C32.663 0.0102925 33.0776 -0.0223051 33.4618 0.0282779C33.513 0.238777 33.4749 2.95294 33.4747 3.43282C32.7369 3.42225 31.9992 3.41939 31.2614 3.42422C30.8735 3.42452 30.4716 3.39873 30.085 3.43289C30.0288 3.74384 30.063 4.14112 30.0623 4.46306L30.0669 6.83264C29.6308 6.81147 29.1901 6.82404 28.7536 6.82358C28.0541 6.82035 27.3545 6.82217 26.655 6.82902C26.6736 5.70064 26.6587 4.56886 26.6644 3.44005C27.4148 3.45049 28.1659 3.44145 28.9162 3.44241C29.2287 3.4428 29.8038 3.49341 30.0793 3.4175L30.0869 3.34843C30.0453 2.28701 30.0839 1.08747 30.0857 0.0150415Z" fill="#3E6B4B"/>
<path d="M30.0857 0.0150415L32.2758 0.0108201C32.663 0.0102925 33.0776 -0.0223051 33.4618 0.0282779C33.189 0.0560355 32.9151 0.0594076 32.6415 0.0666337C32.8807 0.242355 33.1753 -0.128587 33.2868 0.408923C33.3792 0.853732 33.3175 1.56511 33.3148 2.03717C33.3134 2.29747 33.3317 2.5661 33.3134 2.82518C33.3053 2.94128 33.2886 3.09776 33.2356 3.19817C33.2104 3.24588 33.1858 3.24334 33.1418 3.2538C32.8326 3.32748 31.7957 3.26827 31.4112 3.26768C31.1398 3.26724 30.8638 3.29982 30.5936 3.28282C30.4851 3.27598 30.3885 3.25726 30.2885 3.20468L30.2669 3.21127L30.2541 3.18619L30.3162 3.28711C30.2589 3.27481 30.2509 3.2769 30.1963 3.30218C30.158 3.16472 30.2015 2.85654 30.1359 2.75446C30.0786 2.91974 30.1364 3.16394 30.0868 3.34843C30.0453 2.28701 30.0839 1.08747 30.0857 0.0150415Z" fill="#3E6B4B"/>
<path d="M27.764 3.5605C28.0806 3.5672 28.3972 3.56746 28.7139 3.56128C28.9599 3.55555 29.2094 3.53405 29.4549 3.55266C29.5464 3.55959 29.7864 3.57931 29.8373 3.66743C29.955 3.87198 29.9412 6.17462 29.8726 6.48069C29.8612 6.53244 29.8502 6.56947 29.8095 6.59622C29.6607 6.69394 29.0679 6.72177 28.9078 6.67378C28.3925 6.64457 27.4187 6.75113 26.9631 6.62317C26.8918 6.60317 26.8317 6.54678 26.7732 6.49695C26.7536 5.8498 26.7512 5.20256 26.7659 4.55523C26.7704 4.29128 26.7539 3.98407 26.8039 3.72735C27.0728 3.53497 27.4589 3.57073 27.764 3.5605Z" fill="#3E6B4B"/>
<path d="M33.4797 10.24C34.2651 10.2696 35.0529 10.2219 35.8379 10.2576C36.1472 10.2514 36.4571 10.2578 36.7659 10.2478C36.7601 11.3841 36.7491 12.5262 36.7771 13.662C35.6762 13.6342 34.576 13.6667 33.4753 13.6529L33.4758 15.9861C33.476 16.3282 33.5145 16.7413 33.4613 17.0735C33.0645 17.0359 32.6515 17.0604 32.2528 17.0607L30.0827 17.0659L30.0848 17.0393L30.0816 13.6458C30.7979 13.6588 31.5143 13.6627 32.2308 13.6574C32.6453 13.6568 33.0629 13.668 33.4769 13.6418L33.485 13.1764C33.482 12.1994 33.5116 11.2156 33.4797 10.24Z" fill="#3E6B4B"/>
<path d="M30.1619 13.7688C30.2138 13.7588 30.2661 13.7588 30.3184 13.757C30.2989 13.7834 30.3051 13.7702 30.2947 13.8063C30.292 13.8152 30.2899 13.8242 30.2874 13.8332C30.2541 13.8549 30.2466 13.8657 30.2241 13.9004L30.2305 13.9402C30.3191 13.8584 30.3548 13.8167 30.4716 13.8167C30.5388 13.8168 30.5833 13.8093 30.6482 13.794C30.8795 13.7392 31.1564 13.7846 31.3929 13.7838C31.9139 13.7818 32.4566 13.7246 32.9755 13.7918C33.0542 13.802 33.1577 13.8137 33.2217 13.8745C33.2634 13.9143 33.2792 14.0281 33.2852 14.089C33.3139 14.392 33.2813 14.7091 33.2868 15.0135C33.2923 15.3246 33.3742 16.5984 33.2279 16.7829C33.1579 16.8712 33.0861 16.8827 32.9881 16.8794C32.9432 16.8781 32.9042 16.8778 32.8599 16.8882C32.8459 16.8914 32.8319 16.8948 32.8179 16.8982C32.2869 16.9034 31.7559 16.9041 31.2247 16.9003C30.9632 16.8987 30.6797 16.9194 30.4214 16.8833C30.3725 16.8765 30.3369 16.854 30.2979 16.8198C30.2704 16.7959 30.2443 16.7824 30.2128 16.7675C30.2119 16.8808 30.3675 16.8962 30.4299 16.9818C30.3512 16.9877 30.2702 16.9765 30.1913 16.971L30.1621 16.9122C30.2608 16.3449 30.1493 15.6845 30.1472 15.1068C30.1463 14.778 30.2085 14.2492 30.1605 13.9466C30.1495 13.8771 30.1537 13.8393 30.1619 13.7688Z" fill="#3E6B4B"/>
<path d="M33.5444 13.0779C33.5274 12.5201 33.5671 11.9679 33.5715 11.4115C33.5735 11.1662 33.521 10.8612 33.565 10.626C33.5683 10.6088 33.5914 10.5761 33.5988 10.5671C33.8651 10.234 35.94 10.3716 36.4241 10.3803C36.4812 10.4274 36.5704 10.481 36.584 10.5687C36.6402 10.938 36.6237 11.392 36.6065 11.7666C36.6026 11.8527 36.5844 11.9365 36.5842 12.023C36.5831 12.3396 36.6773 13.1673 36.5418 13.4122C36.4482 13.4767 36.3456 13.4962 36.2385 13.5067C35.9529 13.5348 35.6508 13.5043 35.3633 13.4997C35.0057 13.4939 34.6481 13.5054 34.2904 13.4973C34.0888 13.4928 33.7935 13.4433 33.6029 13.5163C33.7243 13.5303 33.8493 13.555 33.9709 13.5584C34.309 13.5677 36.1169 13.4953 36.2816 13.592C36.275 13.5903 36.2683 13.5885 36.2617 13.587C35.9825 13.524 35.6331 13.5808 35.345 13.5833L33.5242 13.5841C33.5497 13.4997 33.5864 13.4164 33.5678 13.3266C33.5504 13.2432 33.5456 13.1635 33.5444 13.0779Z" fill="#3E6B4B"/>
<path d="M33.4843 3.43644C33.8195 3.43658 34.1547 3.43884 34.4897 3.44323C35.2901 3.43137 36.0907 3.44798 36.8911 3.43752C36.8833 4.56966 36.883 5.70177 36.8902 6.83385C35.7514 6.82188 34.6126 6.81848 33.4737 6.82365C33.4817 6.5302 33.4853 6.23667 33.4847 5.94306L33.4843 3.43644Z" fill="#3E6B4B"/>
<path d="M36.033 3.55245C36.2192 3.54633 36.4697 3.5222 36.6282 3.65422C36.7989 3.97084 36.7303 6.02038 36.7085 6.49205C36.5831 6.66323 36.5168 6.6532 36.3358 6.66768C35.8295 6.70817 35.3071 6.67607 34.799 6.67516C34.5184 6.67463 34.1984 6.71097 33.9222 6.67348C33.8449 6.663 33.7509 6.58704 33.6827 6.54323C33.6761 6.61746 33.6832 6.66671 33.6414 6.72517C33.5933 6.71097 33.5878 6.72124 33.5579 6.67038C33.56 6.66176 33.5623 6.6532 33.5641 6.64453C33.6137 6.40875 33.5524 6.06954 33.5426 5.82474C33.5407 5.31797 33.5332 4.80625 33.5536 4.30019C33.5758 4.37734 33.5991 4.454 33.6235 4.53016C33.6784 4.35667 33.5745 3.8009 33.6701 3.69638C33.8798 3.46721 35.6127 3.58393 36.0116 3.55422L36.033 3.55245Z" fill="#3E6B4B"/>
<path d="M30.0802 6.85134C30.1988 6.80287 33.0409 6.83583 33.3754 6.85054L33.443 6.84239L33.4715 6.8732C33.4813 7.20852 33.5006 10.1209 33.4768 10.1922C33.4719 10.2071 33.4598 10.2173 33.4513 10.2298L33.3804 10.2316C33.0354 10.2693 32.6635 10.2386 32.3158 10.2392L30.0784 10.2392C30.1052 9.11356 30.0931 7.97752 30.0802 6.85134Z" fill="#3E6B4B"/>
<path d="M33.3754 6.85054L33.443 6.8424L33.4715 6.87321C33.4813 7.20852 33.5006 10.1209 33.4768 10.1922C33.4719 10.2071 33.4598 10.2173 33.4513 10.2298L33.3804 10.2316C33.0354 10.2693 32.6635 10.2386 32.3158 10.2392L30.0784 10.2392C30.1052 9.11356 30.0931 7.97752 30.0802 6.85134C30.0867 6.85318 30.0931 6.85518 30.0995 6.85687C30.3452 6.92154 30.6331 6.88903 30.885 6.88332L30.8958 6.90445C30.7641 6.93787 30.2284 6.90663 30.177 6.96903C30.1789 6.97641 30.1805 6.98378 30.1821 6.99121C30.2252 7.19613 30.1548 7.39665 30.1504 7.60399C30.1438 7.91111 30.1706 8.22108 30.1734 8.52854C30.1764 8.88432 30.1449 9.88853 30.2112 10.1771C30.2484 10.1471 30.2752 10.1376 30.2807 10.0797C30.2821 10.0644 30.2807 10.049 30.2807 10.0337C30.3379 10.0313 30.359 10.0478 30.4076 10.0766C30.4452 10.099 30.4778 10.1155 30.5202 10.1193C30.9219 10.1558 31.3564 10.1151 31.7615 10.1139C32.1442 10.1127 32.5339 10.1453 32.915 10.1309C32.9946 10.128 33.0824 10.1138 33.1577 10.0818C33.2352 10.0487 33.274 9.99157 33.3045 9.90422C33.3159 9.87116 33.3148 9.87364 33.3212 9.8446C33.3059 9.72395 33.3249 9.56473 33.3242 9.44044C33.3224 9.09572 33.3476 7.32481 33.2678 7.08657C32.9778 6.74979 32.1146 7.07233 31.7574 6.89C32.1889 6.87073 32.9799 6.95903 33.3568 6.85612C33.363 6.8544 33.3692 6.8524 33.3754 6.85054Z" fill="#3E6B4B"/>
<path d="M26.7126 10.2499C27.8302 10.2554 28.9561 10.2858 30.0729 10.2495C30.0641 11.384 30.0635 12.5185 30.071 13.653C28.9454 13.648 27.8172 13.629 26.6917 13.6518C26.6607 13.4574 26.6821 10.3953 26.7126 10.2499Z" fill="#3E6B4B"/>
<path d="M26.7126 10.2499C27.8303 10.2554 28.9562 10.2858 30.0729 10.2495C30.0642 11.384 30.0636 12.5185 30.0711 13.653C28.9454 13.648 27.8172 13.629 26.6917 13.6518C26.7193 13.5168 26.7168 13.3733 26.753 13.2415C26.7597 13.3223 26.7528 13.4297 26.7996 13.4881L26.9416 13.4894L26.9014 13.4134L26.9232 13.4005C26.9347 13.4118 26.9455 13.424 26.9574 13.4345C27.0005 13.4725 27.0416 13.4788 27.0934 13.4837C27.505 13.5228 27.9324 13.4928 28.3462 13.4971C28.7348 13.5012 29.2732 13.571 29.6446 13.4857C29.7348 13.4649 29.8146 13.4377 29.8692 13.3448C29.9224 13.0811 29.9105 10.726 29.8635 10.471C29.8366 10.4603 29.81 10.4504 29.7829 10.4403C29.4003 10.298 28.5724 10.3769 28.1418 10.374C28.0532 10.3734 27.9672 10.3476 27.8787 10.3479C27.7018 10.3486 27.2026 10.4594 27.0691 10.3808L27.087 10.3451C26.9879 10.3224 26.8909 10.317 26.8003 10.3748C26.6954 10.5334 26.7649 10.832 26.7434 11.0272C26.6934 10.7923 26.759 10.5401 26.7218 10.3021C26.719 10.2846 26.7156 10.2673 26.7126 10.2499Z" fill="#3E6B4B"/>
<defs>
<linearGradient id="paint0_linear_2001_308" x1="18.3902" y1="14.0155" x2="18.3902" y2="44" gradientUnits="userSpaceOnUse">
<stop stop-color="#3D6A4A"/>
<stop offset="1" stop-color="#85C096"/>
</linearGradient>
<linearGradient id="paint1_linear_2001_308" x1="17.482" y1="14.0372" x2="17.482" y2="35.1753" gradientUnits="userSpaceOnUse">
<stop stop-color="#3D6A4A"/>
<stop offset="1" stop-color="#85C096"/>
</linearGradient>
<linearGradient id="paint2_linear_2001_308" x1="24.3467" y1="30.6249" x2="24.3467" y2="44" gradientUnits="userSpaceOnUse">
<stop stop-color="#3D6A4A"/>
<stop offset="1" stop-color="#85C096"/>
</linearGradient>
</defs>
</svg>
