<svg width="27" height="83" viewBox="0 0 27 83" fill="none" xmlns="http://www.w3.org/2000/svg">
<path d="M7.56262 61.0588C10.1025 56.6582 16.4539 56.6582 18.9938 61.0588L25.662 72.6105C28.203 77.0111 25.0273 82.5119 19.9464 82.5119H6.60999C1.52909 82.5119 -1.64659 77.0111 0.89441 72.6105L7.56262 61.0588Z" fill="#181B27"/>
<path d="M10.4202 64.9094C11.6907 62.7091 14.8653 62.7091 16.1358 64.9094L20.8988 73.1606C22.1693 75.3609 20.582 78.1113 18.041 78.1113H8.515C5.974 78.1113 4.38674 75.3609 5.65724 73.1606L10.4202 64.9094Z" fill="url(#paint0_linear_2310_1383)"/>
<path d="M18.9938 21.4531C16.4539 25.8537 10.1025 25.8537 7.56262 21.4531L0.89441 9.90143C-1.64659 5.50079 1.52909 0 6.60999 0H19.9464C25.0273 0 28.203 5.50079 25.662 9.90143L18.9938 21.4531Z" fill="#181B27"/>
<path d="M16.1358 17.6025C14.8653 19.8029 11.6907 19.8029 10.4202 17.6025L5.65724 9.35135C4.38674 7.15103 5.974 4.40063 8.515 4.40063H18.041C20.582 4.40063 22.1693 7.15103 20.8988 9.35135L16.1358 17.6025Z" fill="url(#paint1_linear_2310_1383)"/>
<defs>
<linearGradient id="paint0_linear_2310_1383" x1="13.278" y1="59.9587" x2="13.278" y2="84.1622" gradientUnits="userSpaceOnUse">
<stop stop-color="#78A887"/>
<stop offset="1" stop-color="#3D6A49"/>
</linearGradient>
<linearGradient id="paint1_linear_2310_1383" x1="13.278" y1="22.5533" x2="13.278" y2="-1.65024" gradientUnits="userSpaceOnUse">
<stop stop-color="#78A887"/>
<stop offset="1" stop-color="#3D6A49"/>
</linearGradient>
</defs>
</svg>
