<svg width="28" height="28" viewBox="0 0 28 28" fill="" xmlns="http://www.w3.org/2000/svg">
<g clip-path="url(#clip0_10_28475)">
<g clip-path="url(#clip1_10_28475)">
<path d="M22.4937 6.74368C22.8355 6.40189 22.8355 5.84818 22.4937 5.50638C22.1519 5.16458 21.5982 5.16458 21.2564 5.50638L19.5064 7.25638L18.9937 7.76907L17.8623 6.6377C17.1796 5.9541 16.0704 5.9541 15.3877 6.6377L14.5127 7.5127C14.4437 7.58166 14.3867 7.65751 14.3317 7.73424C13.1428 7.26606 11.853 7 10.5 7C4.7104 7 0 11.7104 0 17.5C0 23.2896 4.7104 28 10.5 28C16.2896 28 21 23.2896 21 17.5C21 16.147 20.734 14.8571 20.2658 13.6683C20.3424 13.6133 20.4183 13.5563 20.4873 13.4873L21.3623 12.6123C22.0459 11.9292 22.0459 10.8209 21.3623 10.1377L20.2309 9.00632L20.7436 8.49363L22.4937 6.74368ZM10.5 12.25C7.60495 12.25 5.25 14.605 5.25 17.5C5.25 17.9832 4.85822 18.375 4.375 18.375C3.89178 18.375 3.5 17.9832 3.5 17.5C3.5 13.6403 6.64026 10.5 10.5 10.5C10.9832 10.5 11.375 10.8918 11.375 11.375C11.375 11.8582 10.9832 12.25 10.5 12.25Z" fill=""/>
<path opacity="0.45" d="M25.103 8.14734C24.7612 7.80554 24.2075 7.80554 23.8657 8.14734C23.5239 8.48914 23.5239 9.04285 23.8657 9.38464L24.7407 10.2596C24.9116 10.4305 25.1355 10.516 25.3594 10.516C25.5833 10.516 25.8072 10.4305 25.9781 10.2596C26.3199 9.91785 26.3199 9.36414 25.9781 9.02234L25.103 8.14734Z" fill=""/>
<path opacity="0.45" d="M18.6157 4.13464C18.7866 4.30554 19.0105 4.39102 19.2343 4.39102C19.4582 4.39102 19.6821 4.30554 19.853 4.13464C20.1948 3.79285 20.1948 3.23914 19.853 2.89734L18.978 2.02234C18.6362 1.68054 18.0825 1.68054 17.7407 2.02234C17.3989 2.36414 17.3989 2.91785 17.7407 3.25964L18.6157 4.13464Z" fill=""/>
<path opacity="0.45" d="M21.875 3.5C22.3587 3.5 22.75 3.10822 22.75 2.625V0.875C22.75 0.391781 22.3587 0 21.875 0C21.3913 0 21 0.391781 21 0.875V2.625C21 3.10822 21.3913 3.5 21.875 3.5Z" fill=""/>
<path opacity="0.45" d="M27.125 5.28204H25.375C24.8913 5.28204 24.5 5.67382 24.5 6.15704C24.5 6.64026 24.8913 7.03204 25.375 7.03204H27.125C27.6087 7.03204 28 6.64026 28 6.15704C28 5.67382 27.6087 5.28204 27.125 5.28204Z" fill=""/>
<path opacity="0.45" d="M23.897 4.13464C24.0679 4.30554 24.2918 4.39102 24.5156 4.39102C24.7395 4.39102 24.9634 4.30554 25.1343 4.13464L26.8843 2.38464C27.2261 2.04285 27.2261 1.48914 26.8843 1.14734C26.5425 0.805542 25.9888 0.805542 25.647 1.14734L23.897 2.89734C23.5552 3.23914 23.5552 3.79285 23.897 4.13464Z" fill=""/>
</g>
</g>
<defs>
<clipPath id="clip0_10_28475">
<rect width="28" height="28" fill="white"/>
</clipPath>
<clipPath id="clip1_10_28475">
<rect width="28" height="28" fill="white"/>
</clipPath>
</defs>
</svg>
