<svg width="14" height="16" viewBox="0 0 14 16" fill="none" xmlns="http://www.w3.org/2000/svg">
<path fill-rule="evenodd" clip-rule="evenodd" d="M7.28316 0.0488469L13.1242 2.12588C13.4619 2.24594 13.6876 2.56613 13.6875 2.92507V8.48969C13.6875 12.2795 10.8593 15.5053 7.10894 15.9929C7.03659 16.0023 6.96334 16.0023 6.891 15.9929C3.14066 15.5053 0.3125 12.2796 0.3125 8.48969V2.92507C0.3125 2.56607 0.538125 2.24597 0.875844 2.12588L6.71684 0.0488469C6.9 -0.0162823 7.1 -0.0162823 7.28316 0.0488469ZM10.1142 6.53397C10.3573 6.1775 10.2654 5.69147 9.90897 5.44835C9.55253 5.20522 9.06647 5.2971 8.82334 5.65353L6.67425 8.80438L5.50262 7.70772C5.18759 7.41288 4.69322 7.42922 4.39838 7.74425C4.10353 8.05925 4.11987 8.55366 4.43488 8.8485L6.07387 10.3826C6.52775 10.8074 7.25388 10.7275 7.60431 10.2137L10.1142 6.53397Z" fill="#B1B5C2"/>
</svg>
