<svg width="16" height="16" viewBox="0 0 16 16" fill="none" xmlns="http://www.w3.org/2000/svg">
<path d="M10.9974 3.51043C11.9763 4.17904 12.4176 5.44524 11.9928 6.60775L6.98428 4.79163C7.409 3.62912 8.56396 2.94171 9.74526 3.0564L10.4576 1.10665C10.5834 0.762181 10.9658 0.584571 11.3115 0.709948C11.6573 0.835325 11.8356 1.21621 11.7097 1.56068L10.9974 3.51043ZM8.86493 13.7885C8.19246 13.6521 7.48885 13.4507 6.75411 13.1843C5.95444 12.8943 5.23271 12.569 4.58892 12.2083L5.01693 11.1616C5.0414 11.1018 5.02878 11.0332 4.98458 10.986C4.9219 10.9189 4.8165 10.9151 4.74918 10.9776L3.88496 11.7792C3.31624 11.4017 2.82139 10.9907 2.40039 10.5461C3.31187 8.05125 4.55519 6.26532 6.13034 5.18834L12.391 7.45848C12.9028 9.29218 12.7029 11.4565 11.7914 13.9513C11.1346 14.0278 10.4371 14.0195 9.69907 13.9264V12.4231C9.69907 12.3314 9.6245 12.2571 9.53251 12.2571C9.46216 12.2571 9.3994 12.3012 9.37569 12.3672L8.86493 13.7885Z" fill="#B1B5C2"/>
</svg>
