<svg width="9" height="9" viewBox="0 0 9 9" fill="none" xmlns="http://www.w3.org/2000/svg">
<path d="M0.164753 0.164753C0.384422 -0.0549174 0.740578 -0.0549174 0.960247 0.164753L4.5 3.70406L8.03975 0.164753C8.24252 -0.0380197 8.56159 -0.0536178 8.78226 0.117959L8.83525 0.164753C9.05492 0.384422 9.05492 0.740578 8.83525 0.960247L5.29594 4.5L8.83525 8.03975C9.03802 8.24252 9.05362 8.56159 8.88204 8.78226L8.83525 8.83525C8.61558 9.05492 8.25942 9.05492 8.03975 8.83525L4.5 5.29594L0.960247 8.83525C0.757475 9.03802 0.438408 9.05362 0.217744 8.88204L0.164753 8.83525C-0.0549174 8.61558 -0.0549174 8.25942 0.164753 8.03975L3.70406 4.5L0.164753 0.960247C-0.0380197 0.757475 -0.0536178 0.438408 0.117959 0.217744L0.164753 0.164753Z" fill="#B1B5C2"/>
</svg>
