<svg width="10" height="12" viewBox="0 0 10 12" fill="none" xmlns="http://www.w3.org/2000/svg">
<path d="M9.97086 8.30467C9.99012 8.42357 10 8.54435 10 8.66667C10 10.5076 7.76142 12 5 12C2.23858 12 0 10.5076 0 8.66667C0 8.54435 0.00988256 8.42357 0.0291443 8.30467C1.17161 9.74044 2.97313 10.6667 5 10.6667C7.02346 10.6667 8.82233 9.74355 9.96458 8.31207L9.97086 8.30467ZM9.97086 5.638C9.99012 5.7569 10 5.87768 10 6C10 7.84095 7.76142 9.33333 5 9.33333C2.23858 9.33333 0 7.84095 0 6C0 5.87768 0.00988256 5.7569 0.0291443 5.638C1.17161 7.07377 2.97313 8 5 8C7.02346 8 8.82233 7.07689 9.96458 5.64541L9.97086 5.638ZM5 0C7.76142 0 10 1.49238 10 3.33333C10 5.17428 7.76142 6.66667 5 6.66667C2.23858 6.66667 0 5.17428 0 3.33333C0 1.49238 2.23858 0 5 0Z" fill="#424650"/>
</svg>
