<svg width="14" height="16" viewBox="0 0 14 16" fill="none" xmlns="http://www.w3.org/2000/svg">
<path d="M13.9592 10.8999C13.9862 11.0559 14 11.2145 14 11.375C14 13.7912 10.866 15.75 7 15.75C3.13401 15.75 0 13.7912 0 11.375C0 11.2145 0.0138356 11.0559 0.040802 10.8999C1.64026 12.7843 4.16239 14 7 14C9.83284 14 12.3513 12.7884 13.9504 10.9096L13.9592 10.8999ZM13.9592 7.39987C13.9862 7.55594 14 7.71446 14 7.875C14 10.2912 10.866 12.25 7 12.25C3.13401 12.25 0 10.2912 0 7.875C0 7.71446 0.0138356 7.55594 0.040802 7.39987C1.64026 9.28433 4.16239 10.5 7 10.5C9.83284 10.5 12.3513 9.28841 13.9504 7.4096L13.9592 7.39987ZM7 0C10.866 0 14 1.95875 14 4.375C14 6.79125 10.866 8.75 7 8.75C3.13401 8.75 0 6.79125 0 4.375C0 1.95875 3.13401 0 7 0Z" fill="url(#paint0_linear_2016_335)"/>
<defs>
<linearGradient id="paint0_linear_2016_335" x1="7" y1="0" x2="7" y2="15.75" gradientUnits="userSpaceOnUse">
<stop stop-color="#EAA12E"/>
<stop offset="1" stop-color="#FFBA4B"/>
</linearGradient>
</defs>
</svg>
