<svg width="24" height="15" viewBox="0 0 24 15" fill="none" xmlns="http://www.w3.org/2000/svg">
<g clip-path="url(#clip0_10_21258)">
<path d="M22.5063 0H14.5394C13.7144 0 13.0457 0.668767 13.0457 1.49377C13.0457 2.31877 13.7144 2.98754 14.5394 2.98754H18.9001L12.7761 9.1113L8.85325 5.18804C8.26985 4.60459 7.32391 4.60454 6.74045 5.18799L0.437485 11.4914C0.15736 11.7715 0 12.1514 0 12.5476C0 13.8784 1.60899 14.5448 2.55001 13.6039L7.79692 8.35713L11.7199 12.2798C12.3033 12.8631 13.2491 12.863 13.8324 12.2797L21.0125 5.09992V9.46057C21.0125 10.2856 21.6812 10.9543 22.5062 10.9543C23.3312 10.9543 24 10.2856 24 9.46057V1.49377C24 0.668767 23.3313 0 22.5063 0Z" fill="#77797F"/>
</g>
<defs>
<clipPath id="clip0_10_21258">
<rect width="24" height="15" fill="white"/>
</clipPath>
</defs>
</svg>
