<svg width="34" height="28" viewBox="0 0 34 28" fill="" xmlns="http://www.w3.org/2000/svg">
<path d="M19.5046 15.1527L16.9999 12.6479L14.4951 15.1527V18.8285L16.9999 21.3472L19.5046 18.8285V15.1527Z" fill=""/>
<path d="M32.4783 9.49427C32.3654 9.56335 32.7313 9.23589 26.6909 14.812C22.5602 8.50592 24.588 11.6012 17.8336 1.29251C17.4417 0.694048 16.5616 0.691392 16.1664 1.29251C9.28577 11.7951 11.3814 8.59625 7.30906 14.812C2.74787 10.6022 3.98464 11.744 1.67184 9.60852C1.02755 9.01936 0 9.47767 0 10.3405V21.3472H14.1963L12.7948 19.9457C12.6075 19.7584 12.5026 19.5054 12.5026 19.241V14.7403C12.5026 14.4759 12.6075 14.2222 12.7948 14.0355L16.2953 10.5344C16.6845 10.1452 17.3155 10.1452 17.7047 10.5344L21.2052 14.0355C21.3925 14.2222 21.4974 14.4759 21.4974 14.7403V19.241C21.4974 19.5054 21.3925 19.7584 21.2052 19.9457L19.8063 21.3446L34 21.3472V10.3405C34 9.55737 33.1365 9.08246 32.4783 9.49427Z" fill=""/>
<path d="M0 26.3442C0 26.8948 0.44569 27.3405 0.996327 27.3405H33.0037C33.5543 27.3405 34 26.8948 34 26.3442V23.3399H0V26.3442Z" fill=""/>
<path d="M9.25707 8.20039L7.7938 6.24294C7.36385 5.66594 6.47426 5.72326 6.12462 6.35719L4.4209 9.43584L6.93031 11.752L9.25707 8.20039Z" fill=""/>
<path d="M29.5672 9.4458L27.8589 6.35719C27.5103 5.72518 26.6216 5.66427 26.189 6.24294L24.7344 8.18843L27.0691 11.752L29.5672 9.4458Z" fill=""/>
</svg>
