<svg width="24" height="22" viewBox="0 0 24 22" fill="" xmlns="http://www.w3.org/2000/svg">
<g clip-path="url(#clip0_10_21262)">
<path d="M5.9715 0.96675L0 10.2082L5.07 20.1022L11.0415 10.8608L5.9715 0.96675ZM2.9775 10.8172C2.50125 10.8172 2.115 10.431 2.115 9.95475C2.115 9.4785 2.50125 9.09225 2.9775 9.09225C3.45375 9.09225 3.84 9.4785 3.84 9.95475C3.84 10.431 3.45375 10.8172 2.9775 10.8172ZM5.06625 14.934C4.59 14.934 4.20375 14.5477 4.20375 14.0715C4.20375 13.5952 4.59 13.209 5.06625 13.209C5.5425 13.209 5.92875 13.5952 5.92875 14.0715C5.92875 14.5477 5.5425 14.934 5.06625 14.934ZM5.34975 7.18725C4.8735 7.18725 4.48725 6.801 4.48725 6.32475C4.48725 5.8485 4.8735 5.46225 5.34975 5.46225C5.826 5.46225 6.21225 5.8485 6.21225 6.32475C6.21225 6.801 5.826 7.18725 5.34975 7.18725ZM7.6455 11.4825C7.16925 11.4825 6.78375 11.097 6.78375 10.6207C6.78375 10.1445 7.16925 9.75825 7.6455 9.75825C8.12175 9.75825 8.508 10.1445 8.508 10.6207C8.508 11.097 8.12175 11.4825 7.6455 11.4825ZM12.2828 11.6617L6.195 21.0832L17.7255 21.6615L23.8132 12.2392L12.2828 11.6617ZM11.6565 19.5652C11.1803 19.5652 10.7948 19.179 10.7948 18.7035C10.7948 18.228 11.181 17.8417 11.6565 17.8417C12.1327 17.8417 12.5182 18.228 12.5182 18.7035C12.5182 19.179 12.132 19.5652 11.6565 19.5652ZM18.564 15.7957C18.0878 15.7957 17.7023 15.4095 17.7023 14.934C17.7023 14.4585 18.0885 14.0722 18.564 14.0722C19.0403 14.0722 19.4257 14.4585 19.4257 14.934C19.4257 15.4095 19.0395 15.7957 18.564 15.7957ZM18.7815 0.5835L7.13775 0L12.3563 10.1857L24 10.7685L18.7815 0.5835ZM16.02 6.309C15.5438 6.309 15.1575 5.92275 15.1575 5.4465C15.1575 4.97025 15.5438 4.584 16.02 4.584C16.4963 4.584 16.8825 4.97025 16.8825 5.4465C16.8825 5.92275 16.4963 6.309 16.02 6.309Z" fill=""/>
</g>
<defs>
<clipPath id="clip0_10_21262">
<rect width="24" height="22" fill="white"/>
</clipPath>
</defs>
</svg>
