<svg width="18" height="18" viewBox="0 0 18 18" fill="none" xmlns="http://www.w3.org/2000/svg">
<path d="M9 1C7.41775 1 5.87103 1.46919 4.55544 2.34824C3.23985 3.22729 2.21447 4.47672 1.60897 5.93853C1.00347 7.40034 0.84504 9.00887 1.15372 10.5607C1.4624 12.1126 2.22433 13.538 3.34315 14.6569C4.46197 15.7757 5.88743 16.5376 7.43928 16.8463C8.99113 17.155 10.5997 16.9965 12.0615 16.391C13.5233 15.7855 14.7727 14.7602 15.6518 13.4446C16.5308 12.129 17 10.5822 17 9C16.9975 6.87903 16.1538 4.84565 14.6541 3.3459C13.1543 1.84615 11.121 1.0025 9 1ZM9 14.0909C8.85616 14.0909 8.71556 14.0482 8.59597 13.9683C8.47637 13.8884 8.38315 13.7748 8.3281 13.6419C8.27306 13.509 8.25867 13.3628 8.28673 13.2217C8.31479 13.0807 8.38405 12.9511 8.48575 12.8494C8.58748 12.7477 8.71706 12.6785 8.85812 12.6504C8.99919 12.6224 9.1454 12.6368 9.27828 12.6918C9.41115 12.7469 9.52473 12.8401 9.60465 12.9596C9.68457 13.0792 9.72725 13.2198 9.72728 13.3636C9.72729 13.4591 9.70848 13.5537 9.67193 13.6419C9.63538 13.7302 9.58181 13.8104 9.51428 13.8779C9.44674 13.9454 9.36656 13.999 9.27833 14.0356C9.19009 14.0721 9.09551 14.0909 9 14.0909ZM10.7018 9.17747C10.4136 9.36767 10.1748 9.62383 10.0054 9.92471C9.83587 10.2256 9.74055 10.5625 9.72728 10.9076V11.1818C9.72728 11.2773 9.70847 11.3719 9.67192 11.4601C9.63537 11.5484 9.58179 11.6285 9.51425 11.6961C9.44672 11.7636 9.36655 11.8172 9.27832 11.8537C9.19008 11.8903 9.09551 11.9091 9 11.9091C8.90449 11.9091 8.80992 11.8903 8.72169 11.8537C8.63345 11.8172 8.55328 11.7636 8.48575 11.6961C8.41821 11.6285 8.36464 11.5484 8.32808 11.4601C8.29153 11.3719 8.27272 11.2773 8.27272 11.1818V10.9076C8.28426 10.332 8.43349 9.7675 8.70794 9.26138C8.98238 8.75526 9.37406 8.32223 9.85019 7.99853C10.0815 7.83226 10.2589 7.6017 10.3604 7.33549C10.4619 7.06928 10.483 6.77913 10.421 6.50105C10.359 6.22298 10.2168 5.96922 10.0119 5.77129C9.80695 5.57335 9.54843 5.43994 9.26838 5.38762C9.05821 5.3482 8.84194 5.35559 8.63495 5.40925C8.42796 5.46292 8.23535 5.56155 8.07081 5.69812C7.90632 5.83474 7.77395 6.00594 7.68315 6.19953C7.59235 6.39313 7.54534 6.60436 7.54547 6.81819C7.54547 6.91369 7.52666 7.00827 7.49011 7.0965C7.45355 7.18474 7.39998 7.26491 7.33244 7.33244C7.26491 7.39998 7.18474 7.45355 7.09651 7.49011C7.00827 7.52666 6.9137 7.54548 6.81819 7.54548C6.72268 7.54548 6.62811 7.52666 6.53987 7.49011C6.45164 7.45355 6.37147 7.39998 6.30394 7.33244C6.2364 7.26491 6.18283 7.18474 6.14627 7.0965C6.10972 7.00827 6.09091 6.91369 6.09091 6.81819C6.0909 6.32002 6.21882 5.83019 6.46241 5.39564C6.706 4.96108 7.0571 4.59636 7.48206 4.33641C8.12395 3.94383 8.89297 3.81521 9.62766 3.97755C10.3624 4.13989 11.0056 4.58057 11.4223 5.20706C11.839 5.83356 11.9968 6.59716 11.8624 7.3375C11.7281 8.07784 11.3121 8.73733 10.7018 9.17747Z" fill="#B1B5C2"/>
</svg>
