<svg width="18" height="18" viewBox="0 0 18 18" fill="" xmlns="http://www.w3.org/2000/svg">
<path d="M15 9V13.5C15 15.1575 13.6575 16.5 12 16.5H6C4.3425 16.5 3 15.1575 3 13.5V9C3 8.5875 3.3375 8.25 3.75 8.25H5.2275C5.64 8.25 5.9775 8.5875 5.9775 9V11.355C5.9775 11.91 6.285 12.42 6.7725 12.6825C6.99 12.8025 7.23 12.8625 7.4775 12.8625C7.7625 12.8625 8.0475 12.78 8.295 12.615L9.0075 12.15L9.6675 12.5925C10.125 12.9 10.71 12.9375 11.1975 12.675C11.6925 12.4125 12 11.91 12 11.3475V9C12 8.5875 12.3375 8.25 12.75 8.25H14.25C14.6625 8.25 15 8.5875 15 9Z" fill=""/>
<path d="M16.125 5.25V6C16.125 6.825 15.7275 7.5 14.625 7.5H3.375C2.2275 7.5 1.875 6.825 1.875 6V5.25C1.875 4.425 2.2275 3.75 3.375 3.75H14.625C15.7275 3.75 16.125 4.425 16.125 5.25Z" fill=""/>
<path d="M8.72999 3.75H4.58999C4.33499 3.4725 4.34249 3.045 4.61249 2.775L5.67749 1.71C5.95499 1.4325 6.41249 1.4325 6.68999 1.71L8.72999 3.75Z" fill=""/>
<path d="M13.4025 3.75H9.26251L11.3025 1.71C11.58 1.4325 12.0375 1.4325 12.315 1.71L13.38 2.775C13.65 3.045 13.6575 3.4725 13.4025 3.75Z" fill=""/>
<path d="M10.4775 8.25C10.89 8.25 11.2275 8.5875 11.2275 9V11.3475C11.2275 11.9475 10.56 12.3075 10.065 11.97L9.38999 11.52C9.14249 11.355 8.81999 11.355 8.56499 11.52L7.85999 11.985C7.36499 12.315 6.70499 11.955 6.70499 11.3625V9C6.70499 8.5875 7.04249 8.25 7.45499 8.25H10.4775Z" fill=""/>
</svg>
