<svg width="22" height="22" viewBox="0 0 22 22" fill="none" xmlns="http://www.w3.org/2000/svg">
<g clip-path="url(#clip0_10_39204)">
<path d="M11 9V13.26H16.92C16.6601 14.63 15.88 15.7901 14.71 16.5701L18.28 19.3401C20.36 17.4202 21.56 14.6001 21.56 11.2501C21.56 10.4701 21.49 9.72006 21.36 9.00012L11 9Z" fill="#4285F4"/>
<path d="M4.83523 13.0938L4.03006 13.7101L1.17999 15.9301C2.99 19.5201 6.69974 22.0001 10.9997 22.0001C13.9697 22.0001 16.4597 21.0201 18.2797 19.3401L14.7097 16.5701C13.7297 17.2301 12.4797 17.6301 10.9997 17.6301C8.13973 17.6301 5.70979 15.7001 4.83972 13.1001L4.83523 13.0938Z" fill="#34A853"/>
<path d="M1.18004 6.07001C0.43008 7.54995 0.00012207 9.21999 0.00012207 11C0.00012207 12.7799 0.43008 14.45 1.18004 15.9299C1.18004 15.9399 4.84013 13.0899 4.84013 13.0899C4.62013 12.4299 4.49009 11.73 4.49009 10.9999C4.49009 10.2698 4.62013 9.56979 4.84013 8.90979L1.18004 6.07001Z" fill="#FBBC05"/>
<path d="M11 4.38002C12.62 4.38002 14.06 4.94001 15.21 6.02003L18.36 2.87005C16.45 1.09007 13.97 0 11 0C6.69997 0 2.99 2.47001 1.17999 6.07004L4.83996 8.91006C5.70992 6.31002 8.13996 4.38002 11 4.38002Z" fill="#EA4335"/>
</g>
<defs>
<clipPath id="clip0_10_39204">
<rect width="21.56" height="22" fill="white"/>
</clipPath>
</defs>
</svg>
