<svg width="18" height="18" viewBox="0 0 18 18" fill="" xmlns="http://www.w3.org/2000/svg">
<path d="M2.06249 13.9875C1.75499 13.9875 1.49999 13.7325 1.49999 13.425V9.15C1.46249 7.1175 2.21999 5.1975 3.62999 3.7575C5.03999 2.325 6.92999 1.5375 8.96249 1.5375C13.1175 1.5375 16.5 4.92 16.5 9.075V13.35C16.5 13.6575 16.245 13.9125 15.9375 13.9125C15.63 13.9125 15.375 13.6575 15.375 13.35V9.075C15.375 5.5425 12.5025 2.6625 8.96249 2.6625C7.22999 2.6625 5.62499 3.33 4.43249 4.545C3.23249 5.7675 2.59499 7.395 2.62499 9.135V13.4175C2.62499 13.7325 2.37749 13.9875 2.06249 13.9875Z" fill=""/>
<path d="M4.455 9.3375H4.3575C2.7825 9.3375 1.5 10.62 1.5 12.195V13.605C1.5 15.18 2.7825 16.4625 4.3575 16.4625H4.455C6.03 16.4625 7.3125 15.18 7.3125 13.605V12.195C7.3125 10.62 6.03 9.3375 4.455 9.3375Z" fill=""/>
<path d="M13.6425 9.3375H13.545C11.97 9.3375 10.6875 10.62 10.6875 12.195V13.605C10.6875 15.18 11.97 16.4625 13.545 16.4625H13.6425C15.2175 16.4625 16.5 15.18 16.5 13.605V12.195C16.5 10.62 15.2175 9.3375 13.6425 9.3375Z" fill=""/>
</svg>
