<svg width="24" height="24" viewBox="0 0 24 24" fill="" xmlns="http://www.w3.org/2000/svg">
<g clip-path="url(#clip0_10_21234)">
<path d="M12 8.4C11.288 8.4 10.592 8.61114 9.99995 9.00671C9.40793 9.40229 8.9465 9.96452 8.67403 10.6223C8.40156 11.2802 8.33027 12.004 8.46917 12.7024C8.60808 13.4006 8.95094 14.0422 9.45442 14.5456C9.95789 15.0491 10.5993 15.3919 11.2977 15.5309C11.996 15.6697 12.7199 15.5984 13.3777 15.3259C14.0354 15.0535 14.5978 14.5921 14.9933 14C15.3889 13.4081 15.6 12.712 15.6 12C15.6 11.0452 15.2207 10.1295 14.5456 9.45442C13.8704 8.77928 12.9547 8.4 12 8.4ZM12 13.2C11.7627 13.2 11.5307 13.1297 11.3333 12.9978C11.136 12.8659 10.9822 12.6785 10.8913 12.4592C10.8005 12.24 10.7768 11.9987 10.8231 11.7659C10.8694 11.5331 10.9836 11.3193 11.1515 11.1515C11.3193 10.9836 11.5331 10.8694 11.7659 10.8231C11.9987 10.7768 12.24 10.8005 12.4592 10.8913C12.6785 10.9822 12.8659 11.136 12.9978 11.3333C13.1297 11.5307 13.2 11.7627 13.2 12C13.2 12.3182 13.0735 12.6235 12.8485 12.8485C12.6235 13.0735 12.3182 13.2 12 13.2ZM22.8 10.8H21.516C21.2482 8.68798 20.2859 6.7249 18.7805 5.21951C17.2751 3.71412 15.312 2.75183 13.2 2.484V1.2C13.2 0.881741 13.0735 0.576516 12.8485 0.351472C12.6235 0.126428 12.3182 0 12 0C11.6817 0 11.3765 0.126428 11.1515 0.351472C10.9264 0.576516 10.8 0.881741 10.8 1.2V2.484C8.68798 2.75183 6.7249 3.71412 5.21951 5.21951C3.71412 6.7249 2.75183 8.68798 2.484 10.8H1.2C0.881741 10.8 0.576516 10.9264 0.351472 11.1515C0.126428 11.3765 0 11.6817 0 12C0 12.3182 0.126428 12.6235 0.351472 12.8485C0.576516 13.0735 0.881741 13.2 1.2 13.2H2.484C2.75183 15.312 3.71412 17.2751 5.21951 18.7805C6.7249 20.2859 8.68798 21.2482 10.8 21.516V22.8C10.8 23.1182 10.9264 23.4235 11.1515 23.6485C11.3765 23.8735 11.6817 24 12 24C12.3182 24 12.6235 23.8735 12.8485 23.6485C13.0735 23.4235 13.2 23.1182 13.2 22.8V21.516C15.312 21.2482 17.2751 20.2859 18.7805 18.7805C20.2859 17.2751 21.2482 15.312 21.516 13.2H22.8C23.1182 13.2 23.4235 13.0735 23.6485 12.8485C23.8735 12.6235 24 12.3182 24 12C24 11.6817 23.8735 11.3765 23.6485 11.1515C23.4235 10.9264 23.1182 10.8 22.8 10.8ZM12 19.2C10.576 19.2 9.18392 18.7777 7.9999 17.9866C6.81586 17.1954 5.89302 16.071 5.34806 14.7553C4.80312 13.4396 4.66054 11.992 4.93835 10.5954C5.21616 9.19868 5.90189 7.91576 6.90883 6.90883C7.91576 5.90189 9.19868 5.21616 10.5954 4.93835C11.992 4.66054 13.4396 4.80312 14.7553 5.34806C16.071 5.89302 17.1954 6.81586 17.9866 7.9999C18.7777 9.18392 19.2 10.576 19.2 12C19.2 13.9096 18.4415 15.7409 17.0911 17.0911C15.7409 18.4415 13.9096 19.2 12 19.2Z" fill=""/>
</g>
<defs>
<clipPath id="clip0_10_21234">
<rect width="24" height="24" fill=""/>
</clipPath>
</defs>
</svg>
