<svg width="24" height="24" viewBox="0 0 24 24" fill="" xmlns="http://www.w3.org/2000/svg">
<g clip-path="url(#clip0_10_21274)">
<path d="M12.0002 23.9995C18.6278 23.9995 24 18.6273 24 11.9997C24 5.37219 18.6278 0 12.0002 0C5.37273 0 0 5.37219 0 11.9997C0 18.6273 5.37273 23.9995 12.0002 23.9995ZM15.5144 5.57123C19.0645 5.57123 21.9429 8.44965 21.9429 11.9997C21.9429 15.5498 19.0645 18.4282 15.5144 18.4282C11.9643 18.4282 9.08582 15.5498 9.08582 11.9997C9.08582 8.44965 11.9642 5.57123 15.5144 5.57123Z" fill=""/>
<path d="M13.2525 13.4053C13.2525 14.3227 14.045 15.2926 15.7658 15.2926C17.3405 15.2926 18.3732 14.4585 18.3732 13.2278C18.3732 12.3622 17.789 11.7991 17.1215 11.5487V11.5178C17.7993 11.184 18.1124 10.6101 18.1124 10.0264C18.1124 9.20253 17.4552 8.28455 15.8702 8.28455C14.5146 8.28455 13.4825 9.04571 13.4825 10.193C13.4825 10.7876 13.8054 11.3404 14.4626 11.6844V11.705C13.7215 12.029 13.2525 12.5917 13.2525 13.4053ZM15.7972 9.35882C16.3809 9.35882 16.621 9.77589 16.621 10.2038C16.621 10.6208 16.2975 10.9546 15.9329 11.059C15.3904 10.8924 14.9836 10.6002 14.9836 10.141C14.9836 9.72399 15.2546 9.35882 15.7972 9.35882ZM15.6928 12.2373C16.3083 12.4044 16.7563 12.7588 16.7563 13.3533C16.7563 13.8331 16.3809 14.1983 15.828 14.1983C15.2335 14.1983 14.858 13.7395 14.8683 13.2494C14.8689 12.7588 15.1713 12.3834 15.6928 12.2373Z" fill=""/>
</g>
<defs>
<clipPath id="clip0_10_21274">
<rect width="24" height="24" fill="white"/>
</clipPath>
</defs>
</svg>
