<svg width="20" height="20" viewBox="0 0 20 20" fill="none" xmlns="http://www.w3.org/2000/svg">
<path d="M14.6167 7.34166C15.979 7.34166 17.0833 6.23729 17.0833 4.87499C17.0833 3.51269 15.979 2.40833 14.6167 2.40833C13.2544 2.40833 12.15 3.51269 12.15 4.87499C12.15 6.23729 13.2544 7.34166 14.6167 7.34166Z" fill="#fff"/>
<path d="M5.38333 7.34166C6.74564 7.34166 7.85 6.23729 7.85 4.87499C7.85 3.51269 6.74564 2.40833 5.38333 2.40833C4.02103 2.40833 2.91667 3.51269 2.91667 4.87499C2.91667 6.23729 4.02103 7.34166 5.38333 7.34166Z" fill="#fff"/>
<path d="M14.6167 17.5918C15.979 17.5918 17.0833 16.4874 17.0833 15.1251C17.0833 13.7628 15.979 12.6584 14.6167 12.6584C13.2544 12.6584 12.15 13.7628 12.15 15.1251C12.15 16.4874 13.2544 17.5918 14.6167 17.5918Z" fill="#fff"/>
<path d="M5.38333 17.5918C6.74564 17.5918 7.85 16.4874 7.85 15.1251C7.85 13.7628 6.74564 12.6584 5.38333 12.6584C4.02103 12.6584 2.91667 13.7628 2.91667 15.1251C2.91667 16.4874 4.02103 17.5918 5.38333 17.5918Z" fill="#fff"/>
</svg>
