<svg width="26" height="30" viewBox="0 0 26 30" fill="none" xmlns="http://www.w3.org/2000/svg">
<path d="M4.53597 9.56313C5.283 9.56299 6.03477 9.54236 6.78123 9.57209L6.83487 9.57081C6.87247 9.61786 6.86108 9.68624 6.86047 9.74932C6.84385 10.4432 6.85381 11.1407 6.85379 11.835L6.85473 15.4762L6.85531 17.523C6.8549 18.191 6.84289 18.8579 6.93066 19.5202C6.99569 19.8145 7.04058 20.1084 7.12448 20.3976C7.34684 21.1639 7.71102 21.8132 8.22942 22.3396C8.3303 22.4421 8.43535 22.5509 8.54869 22.6337C8.73813 22.852 9.07162 23.0344 9.31391 23.1659C10.5148 23.7964 11.8418 23.9281 13.1404 23.857C14.6732 23.7731 16.1555 23.2909 17.2218 21.9023C17.6221 21.3025 17.9041 20.6562 18.0527 19.9086C18.2006 19.1645 18.2008 18.4489 18.2003 17.6899L18.1999 16.1993L18.2 11.6387L19.7391 11.6418C19.9545 11.642 20.3153 11.6787 20.5129 11.6177L20.5115 11.6359C20.4852 11.9448 20.5002 12.2701 20.5002 12.5812C20.5002 13.0428 20.4943 13.5059 20.5024 13.9673C21.0356 13.9586 21.5692 13.9626 22.1024 13.9622C22.3432 13.962 22.5879 13.9723 22.8283 13.9593L22.8287 12.4383C22.8286 12.178 22.84 11.909 22.8241 11.6496C23.0083 11.6012 23.2831 11.6365 23.4785 11.6371C24.0111 11.6388 24.5449 11.6504 25.0773 11.6378C25.0658 12.016 25.0553 12.4092 25.0731 12.7869C25.0603 13.3007 25.0698 13.817 25.0698 14.3311V17.156C25.0705 17.9389 25.0922 18.7316 25.0525 19.513C24.9865 20.8109 24.701 22.2473 24.1644 23.3891C22.927 26.2081 20.5767 28.1276 18.0668 29.0646C17.2353 29.3751 16.3709 29.6208 15.5055 29.7506C13.863 30.0492 12.0949 30.0658 10.4409 29.8741C9.96713 29.8192 9.50195 29.7217 9.03083 29.6485C8.84969 29.5831 8.64948 29.5628 8.46402 29.5077C8.09449 29.4395 7.71466 29.3063 7.35571 29.1821C5.5141 28.5446 3.74161 27.4255 2.38468 25.796C0.939659 24.0608 0.182369 21.9381 0.0359196 19.5133C-0.0209365 18.5717 0.0085318 17.6104 0.00920438 16.6663L0.0129739 11.8972L3.02893 11.8991C3.5328 11.8994 4.03794 11.9097 4.5416 11.8946C4.52446 11.1188 4.53655 10.3394 4.53597 9.56313Z" fill="#363A45"/>
<path d="M6.78111 9.57208L6.83475 9.5708C6.87235 9.61785 6.86096 9.68623 6.86035 9.74931C6.84373 10.4432 6.85369 11.1407 6.85367 11.835L6.85461 15.4762L6.85519 17.523C6.85478 18.191 6.84277 18.8579 6.93053 19.5202C6.99557 19.8145 7.04046 20.1084 7.12436 20.3976C7.34672 21.1639 7.7109 21.8131 8.2293 22.3396C8.33018 22.4421 8.43523 22.5509 8.54857 22.6337C8.73801 22.852 9.0715 23.0344 9.31379 23.1659C10.5147 23.7964 11.8417 23.9281 13.1402 23.857C14.6731 23.7731 16.1554 23.2909 17.2217 21.9023L17.3019 21.8685L17.3093 21.882L17.2866 21.9076C17.2636 21.9337 17.2448 21.9533 17.2331 21.9888C17.2032 22.0784 16.7908 22.4773 16.7008 22.6077L16.7126 22.5974C16.685 22.6395 16.6746 22.6718 16.6304 22.6875L16.609 22.6635C16.5493 22.698 16.5022 22.7507 16.4421 22.7857C16.3215 22.8561 16.2465 23.02 16.1692 23.0657C16.1429 23.0813 16.0824 23.076 16.053 23.0748L16.0406 23.0846C15.9294 23.1724 15.8027 23.2377 15.6827 23.3069L15.7264 23.2908C15.62 23.3568 15.514 23.4182 15.4037 23.4742C15.3862 23.4483 15.3942 23.4616 15.3793 23.4347C15.3009 23.4437 15.2179 23.4894 15.1434 23.52C15.1486 23.5224 15.1714 23.5349 15.1763 23.5327L15.1878 23.5415C15.0856 23.612 14.5334 23.8091 14.4321 23.7803C14.4314 23.7695 14.4314 23.7586 14.4303 23.7478C14.4296 23.7404 14.4275 23.7332 14.4261 23.7259L14.3072 23.7617L14.3063 23.7756L14.4005 23.7981C14.1666 23.8984 13.0275 24.0145 12.7425 23.9754L12.8234 23.9591C12.6092 23.9342 12.3363 23.9086 12.1228 23.9561L12.2074 23.9716C11.9076 23.9924 11.3158 23.9522 11.0285 23.8679L11.0281 23.8551C11.0558 23.8491 11.1507 23.8383 11.1668 23.818C11.0975 23.8128 11.0291 23.8044 10.9602 23.7947L10.9626 23.8086L10.9836 23.8197C10.9623 23.8455 10.9466 23.8438 10.9161 23.8438C10.8648 23.8438 10.8034 23.8216 10.7646 23.7825C10.7735 23.7816 10.7824 23.7806 10.7913 23.7797C10.8154 23.7767 10.8362 23.7728 10.8595 23.7659C10.8195 23.7473 10.7942 23.7545 10.7526 23.7595C10.7479 23.7556 10.7435 23.7511 10.7384 23.7478C10.6556 23.6937 10.2645 23.6278 10.1562 23.6258L10.1516 23.6109L10.1927 23.6015C10.0701 23.5241 9.90495 23.4942 9.77183 23.4409C9.59098 23.3682 9.41897 23.2798 9.24141 23.1986C9.22232 23.1899 9.23031 23.1942 9.21082 23.1755C9.18908 23.1495 9.16673 23.1378 9.13669 23.1329C9.06091 23.1206 8.97995 23.0992 8.91013 23.0611C8.59599 22.8899 7.99569 22.3076 7.76769 22.0015C7.66555 21.8645 7.20915 21.167 7.21694 21.0262C7.33713 21.1401 7.36821 21.2826 7.44848 21.4285C7.54131 21.5971 7.64713 21.7598 7.76875 21.9009L7.78108 21.897C7.73395 21.7803 7.58786 21.6219 7.51713 21.4888C7.44111 21.3456 7.34916 21.1931 7.28753 21.041C7.11344 20.6111 6.93285 20.0101 6.88794 19.541L6.87901 19.5385C6.85261 19.6391 6.90138 19.7645 6.91788 19.8655C6.96335 20.1438 7.04406 20.4272 7.12877 20.6922C7.15793 20.7833 7.24516 20.9247 7.24888 21.0123L7.22407 21.0073C7.17934 20.9645 7.13273 20.8858 7.11917 20.8185C7.09444 20.6959 7.03593 20.5698 6.99574 20.4522C6.95476 20.3323 6.92317 20.2076 6.89322 20.0833C6.7346 19.4248 6.72238 18.8004 6.71134 18.1241C6.70898 17.9789 6.67921 17.6246 6.71731 17.4965C6.74969 17.3877 6.74426 17.2993 6.74217 17.1847L6.73511 17.1772C6.7342 17.2149 6.74231 17.2563 6.71892 17.2829C6.70225 17.241 6.70528 17.2596 6.704 17.2142C6.69487 16.8934 6.70725 16.5686 6.70596 16.2471L6.70757 13.4132L6.71049 12.4273C6.71021 12.19 6.68723 11.9399 6.72301 11.7055C6.72961 11.6623 6.73469 11.6241 6.7353 11.5802L6.71326 11.5797L6.69895 11.5528C6.70029 11.5125 6.6964 11.4738 6.71418 11.4386L6.73973 11.4513L6.75801 11.4355L6.75069 11.3798L6.71881 11.3689C6.70832 11.3354 6.70887 11.3473 6.70937 11.3152C6.71171 11.1616 6.69393 10.996 6.71986 10.8457L6.73713 10.8449C6.74476 10.861 6.74913 10.869 6.75491 10.8849C6.78046 10.956 6.80281 11.0839 6.77445 11.1569C6.7716 11.1643 6.76747 11.1707 6.764 11.1776C6.79222 11.2602 6.78476 14.1694 6.78146 14.5271C6.7801 14.6757 6.76661 14.8252 6.76793 14.9733C6.77662 15.9579 6.79663 16.9465 6.78305 17.9309C6.78038 18.1247 6.80059 18.3194 6.8002 18.5142C6.8385 18.2242 6.81149 17.8915 6.8115 17.5957L6.81154 15.7157L6.81133 11.5497C6.81124 10.968 6.82388 10.3827 6.81596 9.80151C6.8154 9.76067 6.8181 9.70403 6.79353 9.67483L6.80958 9.69809L6.78936 9.67979L6.76263 9.74855C6.64253 9.61141 6.65406 9.6796 6.53027 9.6024C6.58388 9.57166 6.70056 9.58635 6.76388 9.57526L6.78111 9.57208Z" fill="#363A45"/>
<path d="M15.2341 29.682C17.4861 29.3213 19.5943 28.5005 21.4537 26.9145C22.962 25.628 24.2191 23.6006 24.6644 21.4437C24.7013 21.2649 24.7548 21.0912 24.7787 20.909C24.7797 20.901 24.7806 20.8932 24.7815 20.8852L24.7955 20.8806C24.817 20.9559 24.7748 21.0026 24.7958 21.0807C24.7086 21.2448 24.6825 21.5806 24.6345 21.7808C24.5311 22.2111 24.2028 23.2033 24.0096 23.5399C24.0048 23.5482 23.9904 23.5718 23.9859 23.5814C23.9708 23.6134 23.9607 23.6391 23.9712 23.6744C24.0514 23.5948 24.0841 23.4096 24.1518 23.3064L24.165 23.3097V23.3891C22.9276 26.2081 20.5773 28.1276 18.0673 29.0646C17.2359 29.3751 16.3715 29.6208 15.5061 29.7507C13.8636 30.0492 12.0955 30.0658 10.4415 29.8741C9.96773 29.8192 9.50254 29.7217 9.03142 29.6485C8.85028 29.5831 8.65007 29.5628 8.46461 29.5078C8.44816 29.494 8.40826 29.4672 8.40039 29.448L8.4297 29.478L8.44026 29.4442C9.08658 29.6482 9.77983 29.74 10.4457 29.824C10.5965 29.8431 10.7684 29.8839 10.9194 29.8711C11.1031 29.8556 11.2905 29.913 11.4791 29.8974C11.3416 29.8628 11.0982 29.8928 11.0018 29.8301C10.9688 29.857 10.94 29.8601 10.8992 29.8514C10.885 29.8483 10.8715 29.8417 10.8575 29.8376C10.7596 29.8093 10.6342 29.8182 10.532 29.8074C10.2898 29.7818 10.0501 29.7378 9.80906 29.7017C9.72382 29.689 9.62881 29.6943 9.54637 29.6701C9.51355 29.6606 9.50665 29.6576 9.48516 29.6257C9.50726 29.5994 9.49606 29.603 9.52478 29.6021C9.55422 29.6013 9.57643 29.6119 9.60396 29.6224C9.82201 29.7056 10.0874 29.7098 10.3148 29.738C10.5018 29.7599 10.689 29.779 10.8765 29.7954C11.0639 29.8118 11.2515 29.8254 11.4392 29.8364C11.6269 29.8473 11.8147 29.8555 12.0026 29.8609C12.1904 29.8665 12.3783 29.8692 12.5663 29.8692C12.7542 29.8692 12.9421 29.8665 13.13 29.8609C13.3178 29.8554 13.5056 29.8472 13.6934 29.8362C13.8811 29.8253 14.0686 29.8115 14.256 29.7951C14.4434 29.7787 14.6306 29.7596 14.8177 29.7377C14.9234 29.7242 15.1443 29.7231 15.2341 29.682Z" fill="#363A45"/>
<path d="M0.0266709 4.66083C1.31063 4.69317 2.59895 4.66879 3.88346 4.66873L5.77235 4.66843C6.13352 4.66832 6.49729 4.67739 6.85822 4.66302C6.85671 4.77499 6.85079 4.88894 6.86264 5.00022C6.83524 5.29743 6.85351 5.62009 6.85368 5.91982C6.8539 6.32461 6.84212 6.73607 6.85851 7.14003C6.85621 7.1906 6.86474 7.20222 6.83411 7.24018L6.77427 7.24014L4.5306 7.24539L4.53284 9.5667C3.75568 9.54564 2.97395 9.55494 2.19657 9.56672C2.22568 8.79424 2.19826 8.01473 2.20998 7.24109L0.00654052 7.24564C0.00957493 6.91044 -0.0201592 4.78366 0.0266709 4.66083Z" fill="#363A45"/>
<path d="M0.0263672 4.66083C1.31033 4.69317 2.59864 4.66879 3.88315 4.66873L5.77205 4.66843C6.13322 4.66832 6.49699 4.67739 6.85791 4.66302C6.85641 4.77499 6.85048 4.88894 6.86234 5.00022C6.83494 5.29743 6.8532 5.62009 6.85338 5.91982C6.8536 6.32461 6.84182 6.73607 6.85821 7.14003C6.85591 7.1906 6.86444 7.20222 6.83381 7.24018L6.77397 7.24014C6.61355 7.18464 6.34416 7.22005 6.16893 7.22032C5.67186 7.22104 5.16427 7.24833 4.66882 7.20943C4.78347 7.17046 4.95039 7.19002 5.07232 7.1843C4.97823 7.13515 4.78602 7.22683 4.69918 7.16708C5.01666 7.10248 6.51732 7.21818 6.64976 7.11521C6.69911 7.07684 6.74478 7.01513 6.75454 6.94451C6.75574 6.93586 6.75576 6.92705 6.75635 6.91832L6.77032 6.90458L6.78369 6.92087C6.77761 6.95363 6.77698 6.96489 6.78129 6.99959L6.81473 6.98075C6.78964 6.46719 6.81007 5.93962 6.81254 5.42492C6.81351 5.2222 6.8309 4.99562 6.80469 4.79606L6.76555 4.79496C6.76887 4.82256 6.77332 4.84564 6.78069 4.87239C6.78318 4.8814 6.78587 4.89033 6.78847 4.89931L6.76211 4.90223C6.73702 4.96393 6.76385 5.02731 6.74727 5.09497L6.73436 5.08714C6.7333 5.04647 6.73247 5.00513 6.72879 4.96465C6.72312 4.90214 6.70162 4.84905 6.65755 4.81217C6.60354 4.76698 6.53207 4.7527 6.46749 4.74926C6.25067 4.73769 6.03275 4.76686 5.81558 4.76623L3.58525 4.76723L1.42167 4.76672C0.990983 4.77013 0.576879 4.74856 0.149808 4.83252C0.139063 4.78635 0.138734 4.80898 0.149652 4.76464L0.201456 4.75327C0.172958 4.72338 0.138046 4.73453 0.100883 4.73432C0.016482 4.87143 0.096972 5.32205 0.0601993 5.50435L0.0563202 5.4484L0.0785778 5.43349L0.0563359 5.43021C0.0583224 5.21258 0.0859292 4.90256 0.0352201 4.6945C0.0324672 4.68321 0.0293234 4.67206 0.0263672 4.66083Z" fill="#363A45"/>
<path d="M0.0584153 7.05247C0.0630607 7.06977 0.0724298 7.08438 0.0804538 7.09976L0.133134 7.10232L0.118665 7.09037C0.421512 7.18643 0.766513 7.15047 1.07777 7.14892C1.42344 7.14389 1.76908 7.14506 2.11472 7.15242C2.14129 7.16364 2.14379 7.1576 2.15785 7.18883C2.1536 7.19149 2.14956 7.1947 2.14511 7.19683C2.07974 7.22808 0.113645 7.23868 0.0571952 7.20788C0.039192 7.15252 0.0515331 7.11061 0.0584153 7.05247Z" fill="#363A45"/>
<path d="M6.77232 5.41934C6.79054 5.5082 6.77994 5.61589 6.78185 5.70829C6.78881 6.04336 6.79606 6.35749 6.77465 6.69133L6.76312 6.68842C6.75868 6.65648 6.75471 6.63071 6.75896 6.59822C6.75987 6.59129 6.76139 6.58449 6.76259 6.5776C6.75771 6.49324 6.73638 6.49787 6.72253 6.43608C6.6903 6.29231 6.69203 5.60855 6.71664 5.46082L6.73269 5.44825L6.75587 5.50681L6.77232 5.41934Z" fill="#363A45"/>
<path d="M20.513 0.0102556L22.0063 0.00737732C22.2703 0.00701758 22.5529 -0.015208 22.8149 0.0192804C22.8498 0.162802 22.8238 2.01337 22.8237 2.34056C22.3207 2.33336 21.8176 2.3314 21.3146 2.3347C21.0501 2.3349 20.7761 2.31732 20.5125 2.34061C20.4742 2.55262 20.4975 2.82349 20.497 3.043L20.5002 4.65862C20.2028 4.64418 19.9023 4.65275 19.6047 4.65244C19.1277 4.65024 18.6508 4.65148 18.1738 4.65615C18.1865 3.8868 18.1763 3.11513 18.1802 2.34549C18.6919 2.3526 19.204 2.34644 19.7156 2.3471C19.9286 2.34736 20.3208 2.38187 20.5086 2.33011L20.5138 2.28302C20.4855 1.55932 20.5117 0.741456 20.513 0.0102556Z" fill="#363A45"/>
<path d="M20.5142 0.0102556L22.0075 0.00737732C22.2716 0.00701758 22.5542 -0.015208 22.8162 0.0192804C22.6302 0.038206 22.4434 0.0405052 22.2568 0.0454321C22.42 0.165242 22.6208 -0.0876729 22.6968 0.278811C22.7599 0.58209 22.7178 1.06712 22.7159 1.38898C22.715 1.56646 22.7275 1.74961 22.715 1.92626C22.7095 2.00542 22.6981 2.11211 22.662 2.18057C22.6448 2.2131 22.628 2.21137 22.598 2.2185C22.3871 2.26874 21.6802 2.22837 21.418 2.22796C21.233 2.22766 21.0448 2.24987 20.8605 2.23828C20.7866 2.23362 20.7207 2.22086 20.6525 2.18501L20.6378 2.1895L20.6291 2.1724L20.6714 2.24121C20.6323 2.23283 20.6269 2.23425 20.5896 2.25149C20.5635 2.15776 20.5932 1.94764 20.5485 1.87804C20.5094 1.99073 20.5488 2.15723 20.515 2.28302C20.4867 1.55932 20.513 0.741457 20.5142 0.0102556Z" fill="#363A45"/>
<path d="M18.9302 2.42762C19.146 2.43219 19.3619 2.43237 19.5779 2.42815C19.7455 2.42424 19.9157 2.40959 20.0831 2.42227C20.1455 2.427 20.3091 2.44045 20.3438 2.50052C20.4241 2.64 20.4147 4.20998 20.3679 4.41866C20.3601 4.45394 20.3526 4.47919 20.3249 4.49743C20.2234 4.56406 19.8192 4.58303 19.71 4.55031C19.3587 4.5304 18.6948 4.60305 18.3841 4.5158C18.3355 4.50217 18.2945 4.46372 18.2546 4.42975C18.2413 3.9885 18.2396 3.5472 18.2496 3.10585C18.2527 2.92588 18.2415 2.71642 18.2756 2.54138C18.4589 2.41021 18.7221 2.4346 18.9302 2.42762Z" fill="#363A45"/>
<path d="M22.8277 6.98181C23.3632 7.00202 23.9004 6.96947 24.4356 6.99384C24.6465 6.9896 24.8578 6.99395 25.0683 6.98715C25.0644 7.76189 25.0569 8.54058 25.076 9.31503C24.3253 9.29604 23.5752 9.31822 22.8247 9.3088L22.825 10.8996C22.8252 11.1329 22.8515 11.4145 22.8152 11.641C22.5446 11.6154 22.263 11.6321 21.9912 11.6323L20.5115 11.6359L20.5129 11.6177L20.5107 9.30397C20.9992 9.31282 21.4876 9.31545 21.9762 9.31187C22.2588 9.31144 22.5435 9.31906 22.8258 9.30123L22.8313 8.98389C22.8293 8.31777 22.8494 7.64698 22.8277 6.98181Z" fill="#363A45"/>
<path d="M20.5647 9.38782C20.6001 9.38097 20.6357 9.38097 20.6714 9.37975C20.6581 9.3978 20.6623 9.38879 20.6553 9.4134C20.6534 9.41947 20.652 9.42562 20.6503 9.43174C20.6276 9.4465 20.6224 9.45391 20.6071 9.47755L20.6115 9.50467C20.6718 9.44893 20.6962 9.42044 20.7759 9.42051C20.8217 9.42055 20.852 9.41545 20.8963 9.40499C21.054 9.36761 21.2428 9.39861 21.404 9.39801C21.7592 9.3967 22.1293 9.35768 22.4831 9.40352C22.5368 9.41046 22.6073 9.41844 22.6509 9.45987C22.6794 9.48703 22.6902 9.56459 22.6943 9.60616C22.7138 9.81274 22.6916 10.0289 22.6954 10.2365C22.6991 10.4486 22.755 11.3171 22.6552 11.4429C22.6075 11.5031 22.5585 11.5109 22.4917 11.5087C22.4611 11.5078 22.4345 11.5076 22.4043 11.5146C22.3947 11.5168 22.3852 11.5192 22.3757 11.5215C22.0136 11.5251 21.6515 11.5255 21.2894 11.5229C21.1111 11.5218 20.9177 11.5359 20.7416 11.5114C20.7083 11.5067 20.684 11.4913 20.6575 11.468C20.6387 11.4518 20.6209 11.4425 20.5994 11.4324C20.5988 11.5096 20.7049 11.5201 20.7474 11.5785C20.6937 11.5825 20.6385 11.5749 20.5847 11.5711L20.5649 11.5311C20.6321 11.1443 20.5561 10.694 20.5547 10.3001C20.5541 10.0759 20.5965 9.71534 20.5638 9.50905C20.5563 9.46163 20.5591 9.43588 20.5647 9.38782Z" fill="#363A45"/>
<path d="M22.8712 8.91674C22.8596 8.53641 22.8867 8.15993 22.8896 7.78058C22.8911 7.61334 22.8552 7.40539 22.8853 7.24501C22.8875 7.2333 22.9033 7.21101 22.9083 7.20482C23.0899 6.97771 24.5046 7.07155 24.8346 7.07745C24.8736 7.10962 24.9344 7.14615 24.9437 7.20591C24.982 7.45771 24.9707 7.76728 24.959 8.02267C24.9563 8.08137 24.944 8.1385 24.9438 8.19749C24.943 8.41338 25.0073 8.97767 24.9149 9.14466C24.8511 9.18866 24.7811 9.20198 24.7081 9.20915C24.5134 9.22829 24.3074 9.20749 24.1114 9.20433C23.8675 9.2004 23.6237 9.20822 23.3798 9.20272C23.2424 9.19961 23.0411 9.16591 22.9111 9.21567C22.9938 9.22518 23.0791 9.24207 23.162 9.24435C23.3925 9.25072 24.6252 9.20134 24.7375 9.26725C24.733 9.26613 24.7284 9.26488 24.7239 9.26386C24.5335 9.22094 24.2953 9.25962 24.0989 9.26137L22.8574 9.26186C22.8748 9.20434 22.8998 9.14752 22.8871 9.08633C22.8753 9.02945 22.872 8.97514 22.8712 8.91674Z" fill="#363A45"/>
<path d="M22.8295 2.34305C23.058 2.34314 23.2866 2.34469 23.515 2.34768C24.0607 2.33959 24.6066 2.35092 25.1524 2.34378C25.147 3.1157 25.1468 3.88759 25.1517 4.65946C24.3753 4.6513 23.5988 4.64898 22.8223 4.6525C22.8277 4.45242 22.8302 4.25229 22.8298 4.05211L22.8295 2.34305Z" fill="#363A45"/>
<path d="M24.5682 2.42213C24.6952 2.41796 24.866 2.4015 24.974 2.49152C25.0904 2.70739 25.0437 4.10481 25.0288 4.4264C24.9432 4.54312 24.898 4.53628 24.7746 4.54615C24.4294 4.57376 24.0733 4.55187 23.7268 4.55125C23.5355 4.55089 23.3173 4.57566 23.129 4.55011C23.0763 4.54296 23.0122 4.49117 22.9657 4.4613C22.9612 4.51191 22.966 4.54549 22.9375 4.58535C22.9047 4.57566 22.9009 4.58267 22.8806 4.548C22.882 4.54211 22.8836 4.53628 22.8848 4.53037C22.9186 4.36961 22.8769 4.13833 22.8701 3.97142C22.8689 3.6259 22.8637 3.27699 22.8776 2.93195C22.8928 2.98456 22.9087 3.03682 22.9253 3.08875C22.9627 2.97046 22.8919 2.59153 22.9571 2.52027C23.1001 2.36401 24.2816 2.44359 24.5536 2.42334L24.5682 2.42213Z" fill="#363A45"/>
<path d="M20.5091 4.67137C20.5899 4.63832 22.5277 4.6608 22.7558 4.67082L22.8019 4.66527L22.8213 4.68628C22.828 4.9149 22.8412 6.90062 22.8249 6.9492C22.8216 6.95941 22.8133 6.96633 22.8076 6.97488L22.7592 6.97609C22.524 7.00179 22.2704 6.98089 22.0333 6.98126L20.5078 6.9813C20.5261 6.21379 20.5178 5.43922 20.5091 4.67137Z" fill="#363A45"/>
<path d="M22.7558 4.67084L22.8019 4.66528L22.8213 4.68629C22.828 4.91491 22.8412 6.90063 22.8249 6.94921C22.8216 6.95943 22.8133 6.96634 22.8076 6.9749L22.7592 6.9761C22.524 7.0018 22.2704 6.9809 22.0333 6.98128L20.5078 6.98131C20.5261 6.2138 20.5178 5.43923 20.5091 4.67138C20.5134 4.67263 20.5178 4.674 20.5222 4.67515C20.6897 4.71925 20.886 4.69708 21.0578 4.69319L21.0651 4.70759C20.9753 4.73038 20.6101 4.70908 20.5751 4.75162C20.5763 4.75666 20.5774 4.76168 20.5785 4.76675C20.6079 4.90647 20.5599 5.04319 20.5569 5.18455C20.5524 5.39395 20.5707 5.60529 20.5726 5.81493C20.5746 6.0575 20.5532 6.74219 20.5984 6.93897C20.6237 6.91851 20.642 6.91203 20.6458 6.87253C20.6467 6.86212 20.6458 6.85161 20.6458 6.84115C20.6847 6.83952 20.6991 6.8508 20.7323 6.87045C20.7579 6.88569 20.7801 6.89693 20.8091 6.89955C21.0829 6.92445 21.3792 6.89669 21.6554 6.89585C21.9163 6.89503 22.1821 6.91724 22.4419 6.90747C22.4961 6.90543 22.556 6.89582 22.6073 6.87393C22.6602 6.85138 22.6866 6.81245 22.7074 6.75289C22.7153 6.73035 22.7145 6.73204 22.7189 6.71224C22.7084 6.62998 22.7214 6.52142 22.7209 6.43667C22.7196 6.20164 22.7369 4.9942 22.6824 4.83177C22.4847 4.60214 21.8961 4.82205 21.6526 4.69774C21.9468 4.6846 22.4861 4.7448 22.7431 4.67464C22.7473 4.67346 22.7516 4.6721 22.7558 4.67084Z" fill="#363A45"/>
<path d="M18.213 6.98855C18.9751 6.99232 19.7428 7.01304 20.5042 6.9883C20.4982 7.76182 20.4978 8.53532 20.5029 9.30881C19.7354 9.30546 18.9662 9.29247 18.1988 9.308C18.1777 9.17546 18.1922 7.08766 18.213 6.98855Z" fill="#363A45"/>
<path d="M18.2135 6.98855C18.9755 6.99232 19.7432 7.01304 20.5046 6.9883C20.4986 7.76182 20.4982 8.53532 20.5033 9.30881C19.7358 9.30546 18.9666 9.29247 18.1992 9.308C18.218 9.21597 18.2163 9.11816 18.241 9.02829C18.2455 9.08336 18.2408 9.15661 18.2727 9.19641L18.3696 9.19727L18.3422 9.14546L18.357 9.13667C18.3649 9.14441 18.3722 9.1527 18.3803 9.15988C18.4098 9.18576 18.4377 9.19008 18.4731 9.19343C18.7537 9.22005 19.0451 9.19964 19.3273 9.20256C19.5922 9.20531 19.9593 9.25293 20.2126 9.19476C20.274 9.18062 20.3285 9.16203 20.3657 9.09874C20.402 8.91893 20.3939 7.31314 20.3618 7.13929C20.3435 7.13197 20.3253 7.12523 20.3069 7.11838C20.046 7.02135 19.4815 7.07517 19.1879 7.07316C19.1275 7.07274 19.0689 7.05516 19.0085 7.05538C18.8879 7.05583 18.5475 7.1314 18.4565 7.07779L18.4687 7.05343C18.4011 7.038 18.335 7.0343 18.2732 7.0737C18.2017 7.18187 18.2491 7.38544 18.2344 7.51853C18.2003 7.35835 18.245 7.18639 18.2197 7.02415C18.2178 7.01223 18.2155 7.00042 18.2135 6.98855Z" fill="#363A45"/>
</svg>
