<svg width="143" height="40" viewBox="0 0 143 40" fill="none" xmlns="http://www.w3.org/2000/svg">
<g clip-path="url(#clip0_10_39259)">
<path d="M6.04776 12.7508C7.04378 12.7506 8.04613 12.7231 9.04138 12.7628L9.1129 12.761C9.16304 12.8238 9.14784 12.9149 9.14704 12.999C9.12488 13.9243 9.13816 14.8542 9.13813 15.7799L9.13938 20.6349L9.14016 23.3639C9.1396 24.2546 9.1236 25.1439 9.24061 26.0269C9.32733 26.4194 9.38717 26.8112 9.49904 27.1968C9.79552 28.2184 10.2811 29.0842 10.9723 29.7861C11.1068 29.9226 11.2468 30.068 11.3979 30.1781C11.6505 30.4693 12.0952 30.7125 12.4182 30.888C14.0194 31.7285 15.7887 31.9042 17.52 31.8093C19.5638 31.6976 21.5402 31.0546 22.9619 29.2029C23.4955 28.4032 23.8715 27.5416 24.0697 26.5447C24.267 25.5526 24.2672 24.5985 24.2665 23.5865L24.2659 21.599L24.2661 15.5182L26.3182 15.5224C26.6054 15.5226 27.0864 15.5716 27.3499 15.4903L27.3481 15.5145C27.3131 15.9263 27.3331 16.3601 27.3331 16.7749C27.3331 17.3903 27.3251 18.0078 27.3361 18.623C28.047 18.6114 28.7582 18.6168 29.4691 18.6162C29.7902 18.616 30.1166 18.6297 30.4371 18.6124L30.4377 16.5843C30.4374 16.2373 30.4526 15.8786 30.4315 15.5328C30.6771 15.4682 31.0435 15.5153 31.3041 15.5161C32.0139 15.5184 32.7259 15.5338 33.4358 15.517C33.4203 16.0212 33.4062 16.5455 33.4302 17.0491C33.4128 17.7342 33.4257 18.4226 33.4257 19.1081V22.8747C33.4265 23.9185 33.4555 24.9754 33.4025 26.0173C33.3145 27.7477 32.9339 29.6632 32.2185 31.1856C30.5686 34.9442 27.435 37.5034 24.0884 38.7528C22.9798 39.1666 21.8274 39.4944 20.6735 39.6674C18.4835 40.0656 16.1261 40.0877 13.9209 39.832C13.2892 39.7589 12.6689 39.629 12.0408 39.5314C11.7993 39.4442 11.5323 39.417 11.2851 39.3437C10.7924 39.2528 10.2859 39.0749 9.80733 38.9093C7.35192 38.0594 4.98864 36.5672 3.17944 34.3946C1.25277 32.081 0.243073 29.2509 0.0478105 26.0177C-0.0279962 24.7622 0.0112942 23.4805 0.0121909 22.2217L0.0172169 15.8629L4.03842 15.8654C4.71024 15.8659 5.38373 15.8796 6.05528 15.8594C6.03242 14.825 6.04853 13.7859 6.04776 12.7508Z" fill="white"/>
<path d="M9.04136 12.7628L9.11285 12.761C9.16299 12.8238 9.14782 12.915 9.14699 12.9991C9.12483 13.9243 9.13811 14.8542 9.13808 15.78L9.13934 20.6349L9.14011 23.364C9.13957 24.2546 9.12355 25.1439 9.24056 26.0269C9.32728 26.4194 9.38715 26.8112 9.49902 27.1968C9.79547 28.2184 10.281 29.0842 10.9722 29.7861C11.1067 29.9226 11.2468 30.068 11.3979 30.1781C11.6505 30.4693 12.0951 30.7125 12.4182 30.888C14.0193 31.7285 15.7887 31.9042 17.52 31.8093C19.5638 31.6976 21.5402 31.0546 22.9618 29.2032L23.0688 29.1581L23.0786 29.176L23.0484 29.2101C23.0177 29.245 22.9927 29.2709 22.9771 29.3184C22.9372 29.4378 22.3873 29.9696 22.2674 30.1437L22.283 30.1298C22.2463 30.1858 22.2323 30.229 22.1735 30.2498L22.145 30.2181C22.0653 30.264 22.0025 30.3341 21.9224 30.381C21.7617 30.4746 21.6615 30.6933 21.5585 30.7541C21.5235 30.7752 21.4428 30.768 21.4036 30.7664L21.3871 30.7794C21.2388 30.8965 21.0699 30.9837 20.9099 31.0757L20.9681 31.0544C20.8263 31.1424 20.6849 31.2242 20.5379 31.2989C20.5145 31.2642 20.5252 31.2821 20.5054 31.2461C20.4009 31.2584 20.2901 31.3192 20.1909 31.36C20.1978 31.3632 20.2282 31.38 20.2347 31.377L20.2501 31.3885C20.1137 31.4826 19.3775 31.7453 19.2424 31.7072C19.2416 31.6928 19.2416 31.6781 19.2401 31.6637C19.2391 31.6538 19.2363 31.6442 19.2345 31.6344L19.076 31.6824L19.0747 31.7008L19.2003 31.7309C18.8885 31.8645 17.3697 32.0192 16.9897 31.9672L17.0975 31.9453C16.812 31.9122 16.4481 31.8781 16.1634 31.9416L16.2762 31.9621C15.8765 31.9898 15.0874 31.9362 14.7044 31.824L14.7039 31.8067C14.7408 31.7989 14.8674 31.7845 14.8889 31.7573C14.7965 31.7504 14.7053 31.7392 14.6133 31.7264L14.6166 31.7448L14.6446 31.7597C14.6161 31.7941 14.5952 31.7917 14.5545 31.7917C14.4862 31.7917 14.4043 31.7621 14.3526 31.7101C14.3645 31.7088 14.3763 31.7075 14.3882 31.7061C14.4203 31.7024 14.4481 31.697 14.4791 31.688C14.4258 31.6632 14.392 31.6728 14.3366 31.6794C14.3303 31.6741 14.3244 31.668 14.3177 31.6637C14.2072 31.5914 13.6858 31.5037 13.5413 31.501L13.5352 31.4813L13.59 31.4688C13.4265 31.3656 13.2064 31.3256 13.0289 31.2546C12.7878 31.1576 12.5584 31.0397 12.3217 30.9314C12.2962 30.9197 12.3069 30.9256 12.2809 30.9005C12.2519 30.8661 12.2221 30.8504 12.1821 30.844C12.081 30.8274 11.9731 30.7989 11.88 30.7482C11.4611 30.5197 10.6607 29.7435 10.3567 29.3352C10.2206 29.1525 9.61206 28.2226 9.62246 28.0349C9.7827 28.1869 9.82413 28.3768 9.93115 28.5714C10.0549 28.7962 10.196 29.013 10.3582 29.201L10.3746 29.196C10.3118 29.0405 10.117 28.829 10.0227 28.6517C9.92133 28.4608 9.79872 28.2576 9.71656 28.0546C9.48446 27.4816 9.24366 26.68 9.18379 26.0546L9.17187 26.0513C9.13667 26.1854 9.20171 26.3526 9.22371 26.4874C9.28432 26.8584 9.39195 27.2362 9.50488 27.5896C9.54376 27.7112 9.66006 27.8997 9.66504 28.0165L9.63195 28.0098C9.57232 27.9525 9.51016 27.8477 9.49208 27.7581C9.45912 27.5946 9.3811 27.4264 9.32752 27.2696C9.27288 27.1096 9.23075 26.9434 9.19083 26.7776C8.97934 25.8997 8.96304 25.0672 8.94832 24.1654C8.94517 23.9719 8.90547 23.4995 8.9563 23.3287C8.99944 23.1836 8.99222 23.0657 8.98942 22.9129L8.98003 22.9029C8.9788 22.9531 8.9896 23.0084 8.95843 23.0438C8.93619 22.988 8.94024 23.0128 8.93854 22.9523C8.92635 22.5246 8.94288 22.0914 8.94115 21.6628L8.94328 17.8842L8.9472 16.5697C8.94683 16.2533 8.91619 15.9199 8.96387 15.6073C8.97267 15.5497 8.97944 15.4988 8.98027 15.4402L8.95088 15.4396L8.93179 15.4037C8.9336 15.3499 8.9284 15.2984 8.95211 15.2515L8.98616 15.2684L9.01054 15.2473L9.00078 15.1731L8.9583 15.1585C8.9443 15.1138 8.94502 15.1297 8.94568 15.0869C8.94883 14.8822 8.9251 14.6613 8.95968 14.4609L8.9827 14.4598C8.99288 14.4813 8.9987 14.492 9.00643 14.5132C9.04048 14.6079 9.07027 14.7785 9.03246 14.8759C9.02867 14.8857 9.02318 14.8942 9.01854 14.9034C9.05616 15.0135 9.04622 18.8925 9.04182 19.3694C9.04 19.5676 9.02203 19.7669 9.02376 19.9644C9.03536 21.2772 9.06203 22.5953 9.04395 23.9078C9.04038 24.1662 9.06731 24.4259 9.0668 24.6855C9.11787 24.2989 9.08184 23.8553 9.08187 23.4609L9.08192 20.9542L9.08163 15.3996C9.08152 14.624 9.09838 13.8435 9.08782 13.0686C9.08707 13.0142 9.09067 12.9387 9.05789 12.8997L9.07931 12.9308L9.05235 12.9064L9.0167 12.998C8.85659 12.8152 8.87195 12.9061 8.70691 12.8032C8.77838 12.7622 8.93395 12.7818 9.01838 12.767L9.04136 12.7628Z" fill="white"/>
<path d="M20.3107 39.576C23.3134 39.095 26.1242 38.0006 28.6034 35.8859C30.6144 34.1707 32.2904 31.4675 32.8843 28.5918C32.9333 28.3534 33.0048 28.1216 33.0368 27.8787C33.0378 27.868 33.0392 27.8576 33.0405 27.847L33.0589 27.8408C33.0877 27.9411 33.0315 28.0035 33.0595 28.1075C32.9432 28.3264 32.9085 28.7742 32.8445 29.0411C32.7066 29.6147 32.2688 30.9379 32.0112 31.3867C32.0048 31.3976 31.9856 31.4291 31.9794 31.4419C31.9594 31.4846 31.9458 31.5187 31.96 31.5659C32.0669 31.4598 32.1104 31.2128 32.2008 31.0752L32.2184 31.0795V31.1856C30.5685 34.9443 27.4349 37.5035 24.0884 38.7528C22.9797 39.1667 21.8273 39.4944 20.6734 39.6675C18.4834 40.0656 16.126 40.0878 13.9208 39.832C13.2891 39.759 12.6688 39.6291 12.0407 39.5315C11.7992 39.4443 11.5322 39.4171 11.285 39.3438C11.263 39.3254 11.2098 39.2896 11.1993 39.264L11.2384 39.304L11.2525 39.259C12.1142 39.531 13.0385 39.6534 13.9264 39.7654C14.1274 39.7907 14.3566 39.8451 14.5579 39.828C14.8029 39.8075 15.0528 39.884 15.3042 39.8632C15.1209 39.8171 14.7963 39.8571 14.6678 39.7734C14.6238 39.8094 14.5854 39.8136 14.5309 39.8019C14.512 39.7976 14.4941 39.7888 14.4754 39.7835C14.3449 39.7456 14.1777 39.7576 14.0414 39.7432C13.7185 39.7091 13.3989 39.6504 13.0775 39.6022C12.9639 39.5854 12.8372 39.5926 12.7273 39.56C12.6835 39.5475 12.6743 39.5435 12.6457 39.5008C12.6751 39.4659 12.6602 39.4707 12.6985 39.4694C12.7377 39.4683 12.7673 39.4827 12.8041 39.4966C13.0948 39.6075 13.4486 39.6131 13.7518 39.6507C14.0012 39.6798 14.2508 39.7054 14.5007 39.7272C14.7506 39.7491 15.0007 39.7672 15.2509 39.7819C15.5012 39.7963 15.7516 39.8072 16.0022 39.8147C16.2525 39.8219 16.5031 39.8256 16.7538 39.8256C17.0043 39.8256 17.2548 39.8219 17.5054 39.8147C17.7558 39.8072 18.0061 39.7963 18.2565 39.7816C18.5068 39.767 18.7569 39.7488 19.0067 39.7267C19.2565 39.7048 19.5062 39.6795 19.7556 39.6502C19.8966 39.6323 20.191 39.631 20.3107 39.576Z" fill="white"/>
<path d="M0.0355606 6.21448C1.74748 6.2576 3.4652 6.22509 5.17784 6.22501L7.69632 6.22461C8.17787 6.22448 8.66288 6.23656 9.14411 6.21738C9.14211 6.36669 9.13419 6.51861 9.15 6.66701C9.11347 7.06328 9.13784 7.49349 9.13805 7.89314C9.13835 8.43285 9.12264 8.98146 9.14451 9.52008C9.14144 9.58752 9.1528 9.60301 9.11197 9.65362L9.03219 9.65354L6.04069 9.66056L6.04365 12.7557C5.00747 12.7275 3.96517 12.74 2.92869 12.7557C2.96752 11.7257 2.93096 10.6863 2.94659 9.65482L0.00872053 9.6609C0.0127663 9.21397 -0.0268784 6.37824 0.0355606 6.21448Z" fill="white"/>
<path d="M0.0355225 6.21448C1.74744 6.2576 3.46515 6.22509 5.17782 6.22501L7.69627 6.22461C8.17784 6.22448 8.66286 6.23656 9.14406 6.21738C9.14206 6.36669 9.13416 6.51861 9.14998 6.66701C9.11344 7.06328 9.13779 7.49349 9.13803 7.89314C9.13832 8.43285 9.12262 8.98146 9.14446 9.52008C9.14139 9.58752 9.15278 9.60301 9.11192 9.65362L9.03214 9.65354C8.81824 9.57957 8.45907 9.62677 8.22544 9.62714C7.5627 9.6281 6.88592 9.66448 6.22534 9.61261C6.37819 9.56064 6.60075 9.58674 6.76331 9.57912C6.63787 9.51357 6.3816 9.63581 6.26582 9.55613C6.68912 9.47002 8.68995 9.62426 8.86654 9.48698C8.93232 9.43584 8.99323 9.35354 9.00624 9.25938C9.00784 9.24784 9.00787 9.2361 9.00867 9.22448L9.02728 9.20613L9.04512 9.22786C9.03699 9.27154 9.03616 9.28656 9.0419 9.33282L9.08648 9.3077C9.05304 8.62296 9.08027 7.91954 9.08358 7.23328C9.08486 6.96298 9.10806 6.66088 9.0731 6.3948L9.02091 6.39333C9.02534 6.4301 9.03128 6.4609 9.0411 6.49656C9.04443 6.50856 9.048 6.52048 9.05147 6.53245L9.01632 6.53634C8.98288 6.61861 9.01864 6.70312 8.99654 6.79333L8.97934 6.7829C8.97792 6.72866 8.9768 6.67354 8.97192 6.61957C8.96435 6.53621 8.93568 6.46544 8.87691 6.41626C8.80491 6.35602 8.70963 6.33698 8.62352 6.3324C8.33443 6.31696 8.04387 6.35584 7.75432 6.35501L4.78062 6.35634L1.89589 6.35565C1.32165 6.36021 0.769522 6.33146 0.200107 6.44341C0.18578 6.38184 0.185342 6.41202 0.199899 6.35288L0.26897 6.33773C0.230973 6.29786 0.184425 6.31274 0.134874 6.31248C0.0223424 6.49528 0.12966 7.0961 0.080631 7.33917L0.075459 7.26458L0.105135 7.24469L0.0754801 7.24032C0.0781286 6.95016 0.114937 6.5368 0.0473259 6.25938C0.0436555 6.24432 0.0394641 6.22946 0.0355225 6.21448Z" fill="white"/>
<path d="M0.0776834 9.40326C0.0838772 9.42633 0.096369 9.44582 0.107067 9.4663L0.177306 9.46974L0.158015 9.45379C0.561804 9.58187 1.0218 9.53393 1.4368 9.53185C1.89768 9.52515 2.35853 9.52673 2.81936 9.53654C2.8548 9.55147 2.85814 9.54342 2.87688 9.58507C2.8712 9.58862 2.86582 9.59289 2.85987 9.59574C2.77272 9.63739 0.151321 9.65155 0.0760564 9.61049C0.052053 9.53665 0.0685071 9.48078 0.0776834 9.40326Z" fill="white"/>
<path d="M9.02906 7.22577C9.05336 7.34425 9.03922 7.48785 9.04176 7.61105C9.05104 8.0578 9.06072 8.47665 9.03218 8.92177L9.0168 8.91788C9.01088 8.87529 9.0056 8.84094 9.01125 8.79761C9.01248 8.78838 9.01448 8.77932 9.0161 8.77014C9.0096 8.65764 8.98114 8.66382 8.96269 8.58145C8.9197 8.38974 8.92202 7.47806 8.95482 7.28108L8.97621 7.26433L9.00712 7.34241L9.02906 7.22577Z" fill="white"/>
<path d="M27.3506 0.0136741L29.3416 0.00983643C29.6936 0.00935678 30.0704 -0.0202774 30.4197 0.0257072C30.4664 0.21707 30.4317 2.68448 30.4314 3.12075C29.7608 3.11115 29.0901 3.10853 28.4194 3.11293C28.0666 3.1132 27.7013 3.08976 27.3501 3.1208C27.2989 3.40349 27.3301 3.76467 27.3293 4.05733L27.3336 6.21149C26.937 6.19224 26.5365 6.20368 26.1396 6.20325C25.5037 6.20032 24.8677 6.20197 24.2318 6.20819C24.2487 5.1824 24.2351 4.15352 24.2403 3.12731C24.9225 3.1368 25.6053 3.12859 26.2874 3.12947C26.5715 3.12981 27.0944 3.17581 27.3448 3.10683L27.3517 3.04403C27.3138 2.0791 27.349 0.988608 27.3506 0.0136741Z" fill="white"/>
<path d="M27.3506 0.0136741L29.3416 0.00983643C29.6936 0.00935678 30.0704 -0.0202774 30.4197 0.0257072C30.1717 0.0509413 29.9229 0.0540069 29.6741 0.060576C29.8914 0.220323 30.1594 -0.116897 30.2608 0.371749C30.3448 0.77612 30.2885 1.42282 30.2861 1.85197C30.2848 2.08861 30.3016 2.33282 30.2848 2.56835C30.2776 2.67389 30.2624 2.81613 30.2141 2.90741C30.1912 2.9508 30.169 2.94848 30.1288 2.958C29.8477 3.02499 28.905 2.97115 28.5557 2.97061C28.3088 2.97021 28.0581 2.99984 27.8122 2.98437C27.7136 2.97816 27.6258 2.96115 27.5349 2.91336L27.5154 2.91933L27.5037 2.89653L27.5602 2.98827C27.508 2.97709 27.5008 2.97899 27.4512 3.00197C27.4162 2.87701 27.456 2.59686 27.3962 2.50405C27.3442 2.65431 27.3968 2.87632 27.3517 3.04403C27.3138 2.0791 27.349 0.988608 27.3506 0.0136741Z" fill="white"/>
<path d="M25.2399 3.2368C25.5277 3.24288 25.8156 3.24312 26.1035 3.23749C26.3271 3.23229 26.554 3.21274 26.777 3.22965C26.8602 3.23597 27.0786 3.25389 27.1247 3.334C27.2317 3.51994 27.2191 5.61325 27.157 5.89152C27.1463 5.93856 27.1365 5.97221 27.0994 5.99653C26.9642 6.08538 26.4253 6.11066 26.2798 6.06704C25.8114 6.0405 24.9261 6.13736 24.5119 6.02104C24.447 6.00285 24.3924 5.9516 24.3392 5.90629C24.3214 5.31797 24.3192 4.72957 24.3326 4.14109C24.3367 3.90114 24.3217 3.62186 24.3672 3.38848C24.6116 3.21357 24.9626 3.2461 25.2399 3.2368Z" fill="white"/>
<path d="M30.436 9.30908C31.1501 9.33602 31.8664 9.29263 32.58 9.32511C32.8611 9.31946 33.1429 9.32524 33.4235 9.31618C33.4184 10.3492 33.4083 11.3874 33.4336 12.42C32.4328 12.3947 31.4328 12.4243 30.432 12.4117L30.4325 14.5328C30.4328 14.8438 30.4677 15.2194 30.4195 15.5213C30.0587 15.4872 29.6832 15.5095 29.3208 15.5097L27.348 15.5145L27.3499 15.4903L27.3469 12.4053C27.9981 12.4171 28.6493 12.4206 29.3008 12.4158C29.6776 12.4152 30.0571 12.4254 30.4336 12.4016L30.4408 11.9785C30.4381 11.0904 30.4651 10.196 30.436 9.30908Z" fill="white"/>
<path d="M27.42 12.5171C27.4669 12.508 27.5146 12.508 27.5621 12.5063C27.5445 12.5304 27.5501 12.5184 27.5408 12.5512C27.5381 12.5593 27.5362 12.5675 27.5341 12.5757C27.5037 12.5954 27.4968 12.6053 27.4765 12.6368L27.4824 12.6729C27.5626 12.5986 27.5952 12.5606 27.7016 12.5607C27.7626 12.5608 27.8029 12.554 27.8621 12.54C28.0722 12.4902 28.324 12.5315 28.5389 12.5307C29.0125 12.529 29.5061 12.4769 29.9778 12.5381C30.0493 12.5473 30.1434 12.5579 30.2016 12.6132C30.2394 12.6494 30.2538 12.7528 30.2592 12.8082C30.2853 13.0837 30.2557 13.3719 30.2608 13.6487C30.2658 13.9315 30.3402 15.0895 30.2072 15.2572C30.1434 15.3375 30.0784 15.3479 29.9893 15.345C29.9482 15.3437 29.9128 15.3435 29.8725 15.3529C29.86 15.3558 29.8472 15.3589 29.8344 15.3621C29.3517 15.3668 28.869 15.3674 28.3861 15.3639C28.1482 15.3625 27.8906 15.3813 27.6557 15.3485C27.6114 15.3423 27.5789 15.3218 27.5434 15.2907C27.5186 15.2691 27.4946 15.2567 27.4661 15.2432C27.4653 15.3462 27.6066 15.3602 27.6634 15.438C27.592 15.4434 27.5184 15.4332 27.4466 15.4282L27.4202 15.3748C27.5098 14.8591 27.4085 14.2586 27.4066 13.7335C27.4058 13.4346 27.4621 12.9538 27.4186 12.6788C27.4088 12.6155 27.4125 12.5812 27.42 12.5171Z" fill="white"/>
<path d="M30.495 11.889C30.4795 11.3819 30.5155 10.8799 30.5195 10.3741C30.5214 10.1511 30.4736 9.87385 30.5136 9.66001C30.5166 9.64438 30.5376 9.61465 30.5443 9.60641C30.7864 9.30358 32.6728 9.42872 33.1128 9.43659C33.1648 9.47947 33.2459 9.52816 33.2582 9.60784C33.3094 9.9436 33.2942 10.3564 33.2787 10.6969C33.275 10.7751 33.2587 10.8513 33.2584 10.93C33.2574 11.2178 33.343 11.9702 33.2198 12.1929C33.1347 12.2515 33.0416 12.2693 32.944 12.2788C32.6846 12.3044 32.4099 12.2766 32.1486 12.2724C31.8235 12.2672 31.4982 12.2776 31.1731 12.2703C30.9899 12.2661 30.7214 12.2212 30.548 12.2875C30.6584 12.3002 30.772 12.3228 30.8827 12.3258C31.1899 12.3343 32.8336 12.2684 32.9832 12.3563C32.9774 12.3548 32.9712 12.3532 32.9651 12.3518C32.7115 12.2946 32.3936 12.3461 32.1318 12.3485L30.4766 12.3491C30.4998 12.2724 30.5331 12.1967 30.5163 12.1151C30.5003 12.0392 30.496 11.9668 30.495 11.889Z" fill="white"/>
<path d="M30.4403 3.12402C30.7451 3.12416 31.0496 3.12621 31.3544 3.13021C32.0819 3.11944 32.8099 3.13453 33.5373 3.12501C33.5304 4.15424 33.5301 5.18344 33.5365 6.21258C32.5013 6.2017 31.4661 6.19861 30.4307 6.2033C30.4379 5.93653 30.4413 5.6697 30.4408 5.40277L30.4403 3.12402Z" fill="white"/>
<path d="M32.7573 3.22948C32.9266 3.22393 33.1544 3.20198 33.2984 3.32201C33.4536 3.60982 33.3912 5.47305 33.3714 5.90185C33.2573 6.05745 33.1971 6.04836 33.0325 6.0615C32.5723 6.0983 32.0973 6.06913 31.6355 6.06831C31.3805 6.06783 31.0896 6.10086 30.8384 6.06678C30.768 6.05726 30.6827 5.9882 30.6208 5.94838C30.6147 6.01585 30.621 6.06063 30.5832 6.11377C30.5394 6.10087 30.5344 6.1102 30.5072 6.06396C30.5091 6.05612 30.5112 6.04836 30.5128 6.04046C30.5578 5.82612 30.5021 5.51774 30.4933 5.29521C30.4914 4.83452 30.4848 4.36929 30.5032 3.90924C30.5235 3.9794 30.5445 4.04908 30.5669 4.1183C30.6168 3.9606 30.5221 3.45534 30.6093 3.36033C30.7997 3.15198 32.3752 3.25809 32.7378 3.2311L32.7573 3.22948Z" fill="white"/>
<path d="M27.3456 6.22846C27.4536 6.18441 30.0371 6.21438 30.3413 6.22774L30.4027 6.22033L30.4285 6.24836C30.4376 6.55318 30.4552 9.20081 30.4333 9.26558C30.4291 9.27921 30.4179 9.28841 30.4104 9.29982L30.3459 9.30142C30.0323 9.33569 29.6941 9.30782 29.3779 9.30833L27.344 9.30838C27.3685 8.28502 27.3573 7.25228 27.3456 6.22846Z" fill="white"/>
<path d="M30.3413 6.22778L30.4027 6.2204L30.4285 6.2484C30.4376 6.55322 30.4552 9.20085 30.4333 9.26562C30.4291 9.27925 30.4179 9.28845 30.4104 9.29986L30.3459 9.30147C30.0323 9.33573 29.6941 9.30786 29.3779 9.30837L27.344 9.30842C27.3685 8.28509 27.3573 7.25232 27.3456 6.22853C27.3515 6.23018 27.3573 6.232 27.3632 6.23354C27.5867 6.29234 27.8483 6.26277 28.0773 6.2576L28.0869 6.2768C27.9675 6.30717 27.4803 6.27877 27.4336 6.33549C27.4355 6.34221 27.4368 6.3489 27.4384 6.35568C27.4776 6.54197 27.4133 6.72426 27.4096 6.91274C27.4035 7.19194 27.4277 7.47373 27.4304 7.75325C27.4331 8.07669 27.4045 8.9896 27.4648 9.25197C27.4987 9.22469 27.5229 9.21605 27.528 9.16338C27.5291 9.14952 27.528 9.13549 27.528 9.12154C27.58 9.11938 27.5989 9.1344 27.6432 9.16061C27.6776 9.18093 27.7072 9.19592 27.7456 9.19941C28.1109 9.23261 28.5059 9.1956 28.8741 9.19448C29.2219 9.19338 29.5763 9.22301 29.9227 9.20997C29.9949 9.20725 30.0749 9.19442 30.1432 9.16525C30.2139 9.13517 30.2491 9.08328 30.2768 9.00386C30.2872 8.97381 30.2861 8.97605 30.292 8.94965C30.2781 8.83997 30.2955 8.69522 30.2947 8.58224C30.2931 8.26885 30.316 6.65893 30.2435 6.44237C29.9797 6.13618 29.1952 6.42941 28.8704 6.26365C29.2627 6.24613 29.9816 6.32642 30.3243 6.23285C30.3299 6.2313 30.3357 6.22949 30.3413 6.22778Z" fill="white"/>
<path d="M24.2842 9.31807C25.3002 9.32311 26.3238 9.35074 27.339 9.31775C27.331 10.3491 27.3304 11.3804 27.3374 12.4118C26.314 12.4073 25.2884 12.39 24.2652 12.4107C24.2371 12.234 24.2565 9.45023 24.2842 9.31807Z" fill="white"/>
<path d="M24.2842 9.31807C25.3003 9.32311 26.3238 9.35074 27.339 9.31775C27.3312 10.3491 27.3304 11.3804 27.3374 12.4118C26.314 12.4073 25.2884 12.39 24.2653 12.4107C24.2903 12.288 24.288 12.1576 24.3209 12.0377C24.327 12.1112 24.3208 12.2088 24.3633 12.2619L24.4924 12.2631L24.4559 12.194L24.4757 12.1822C24.4861 12.1925 24.4959 12.2036 24.5068 12.2132C24.546 12.2477 24.5833 12.2535 24.6304 12.2579C25.0046 12.2934 25.3931 12.2662 25.7693 12.2701C26.1226 12.2738 26.612 12.3372 26.9496 12.2597C27.0318 12.2408 27.1043 12.2161 27.1539 12.1317C27.2022 11.8919 27.1915 9.75087 27.1486 9.51908C27.1243 9.50932 27.1 9.50034 27.0755 9.49119C26.7275 9.3618 25.9749 9.43356 25.5835 9.43089C25.503 9.43033 25.4248 9.4069 25.3443 9.40719C25.1835 9.4078 24.7297 9.50855 24.6083 9.43708L24.6246 9.40458C24.5345 9.38402 24.4463 9.37908 24.3639 9.43162C24.2686 9.57586 24.3318 9.84727 24.3122 10.0247C24.2667 9.81114 24.3264 9.58188 24.2926 9.36554C24.2901 9.34964 24.287 9.33391 24.2842 9.31807Z" fill="white"/>
<path d="M46.9134 20.9174C46.9134 21.6996 47.0627 22.3822 47.3613 22.9654C47.6744 23.5342 48.1224 23.9751 48.7054 24.288C49.2886 24.5867 50.0067 24.736 50.86 24.736C51.7134 24.736 52.4317 24.5867 53.0147 24.288C53.5979 23.9751 54.0387 23.5342 54.3373 22.9654C54.6504 22.3822 54.8067 21.6996 54.8067 20.9174V12H58.8387V21.1094C58.8387 22.56 58.5045 23.8258 57.836 24.9067C57.1677 25.9876 56.236 26.8339 55.0413 27.4454C53.8467 28.0427 52.4531 28.3414 50.86 28.3414C49.2672 28.3414 47.8733 28.0427 46.6787 27.4454C45.484 26.8339 44.5526 25.9876 43.884 24.9067C43.2158 23.8258 42.8813 22.56 42.8813 21.1094V12H46.9134V20.9174ZM76.5672 25.248L75.2659 25.4827V12H79.1699V28H74.0925L64.3432 14.5174L65.6446 14.2827V28H61.7405V12H66.9672L76.5672 25.248ZM82.2824 12H86.3144V28H82.2824V12ZM94.484 13.792H98.516V28H94.484V13.792ZM88.2547 12H104.745V15.5627H88.2547V12ZM114.653 28.3414C112.775 28.3414 111.125 27.9928 109.703 27.296C108.295 26.5991 107.2 25.6249 106.418 24.3734C105.635 23.1218 105.245 21.664 105.245 20C105.245 18.336 105.635 16.8782 106.418 15.6267C107.2 14.3751 108.295 13.4009 109.703 12.704C111.125 12.0071 112.775 11.6587 114.653 11.6587C116.53 11.6587 118.173 12.0071 119.581 12.704C121.003 13.4009 122.105 14.3751 122.887 15.6267C123.683 16.8782 124.082 18.336 124.082 20C124.082 21.664 123.683 23.1218 122.887 24.3734C122.105 25.6249 121.003 26.5991 119.581 27.296C118.173 27.9928 116.53 28.3414 114.653 28.3414ZM114.653 24.736C115.762 24.736 116.715 24.5511 117.511 24.1814C118.307 23.7974 118.919 23.2498 119.346 22.5387C119.787 21.8276 120.007 20.9814 120.007 20C120.007 19.0187 119.787 18.1725 119.346 17.4614C118.919 16.7502 118.307 16.2098 117.511 15.84C116.715 15.456 115.762 15.264 114.653 15.264C113.557 15.264 112.611 15.456 111.815 15.84C111.019 16.2098 110.4 16.7502 109.959 17.4614C109.518 18.1725 109.298 19.0187 109.298 20C109.298 20.9814 109.518 21.8276 109.959 22.5387C110.4 23.2498 111.019 23.7974 111.815 24.1814C112.611 24.5511 113.557 24.736 114.653 24.736ZM129.265 19.04H135.259C136.013 19.04 136.61 18.8694 137.051 18.528C137.492 18.1725 137.713 17.6818 137.713 17.056C137.713 16.4302 137.492 15.9467 137.051 15.6054C136.61 15.2498 136.013 15.072 135.259 15.072H128.689L130.502 13.088V28H126.47V12H135.793C136.987 12 138.033 12.2134 138.929 12.64C139.825 13.0667 140.521 13.6569 141.019 14.4107C141.517 15.1645 141.766 16.0462 141.766 17.056C141.766 18.0516 141.517 18.9262 141.019 19.68C140.521 20.4338 139.825 21.024 138.929 21.4507C138.033 21.8774 136.987 22.0907 135.793 22.0907H129.265V19.04ZM131.846 20.512H136.39L142.278 28H137.606L131.846 20.512Z" fill="white"/>
</g>
<defs>
<clipPath id="clip0_10_39259">
<rect width="142.933" height="40" fill="white"/>
</clipPath>
</defs>
</svg>
