<svg width="20" height="20" viewBox="0 0 20 20" fill="none" xmlns="http://www.w3.org/2000/svg">
<g clip-path="url(#clip0_10_27345)">
<path d="M18.732 0.894414C15.1787 0.830628 11.126 2.68931 8.56037 5.57416C6.10848 5.62088 3.72144 6.62652 1.96359 8.38613C1.91343 8.43577 1.87805 8.49836 1.86137 8.56693C1.8447 8.6355 1.8474 8.70736 1.86916 8.77449C1.89139 8.8417 1.93192 8.90138 1.98618 8.94685C2.04045 8.99231 2.10631 9.02176 2.17637 9.03188L5.09927 9.45102L4.73862 9.85534C4.60437 10.0057 4.6112 10.2346 4.75341 10.377L9.62873 15.2572C9.6639 15.2926 9.70573 15.3207 9.75182 15.3398C9.7979 15.359 9.84732 15.3688 9.89723 15.3688C9.98712 15.3688 10.0782 15.3369 10.1498 15.272L10.5537 14.911L10.9724 17.8368C10.9929 17.9792 11.1056 18.084 11.2409 18.1295C11.2759 18.1408 11.3123 18.1465 11.349 18.1466C11.456 18.1466 11.5663 18.0999 11.6426 18.0247C13.3765 16.2902 14.38 13.9007 14.4267 11.4464C17.3121 8.87359 19.1837 4.81795 19.1018 1.26456C19.0983 1.06295 18.9345 0.900092 18.732 0.894414ZM15.2368 7.44881C14.867 7.81895 14.3812 8.00345 13.8965 8.00345C13.4107 8.00345 12.9248 7.81895 12.5551 7.44881C11.8167 6.70852 11.8167 5.5047 12.5551 4.76441C13.2946 4.02413 14.4972 4.02413 15.2368 4.76441C15.9763 5.5047 15.9763 6.70852 15.2368 7.44881Z" fill="white"/>
<path d="M2.96174 13.7111C2.14738 14.5243 1.03084 18.2015 0.906523 18.6178C0.866595 18.7524 0.903095 18.8972 1.00231 18.9953C1.03732 19.0308 1.07906 19.059 1.12508 19.0782C1.1711 19.0974 1.22048 19.1072 1.27034 19.1071C1.30684 19.1071 1.34334 19.1014 1.37981 19.0911C1.79609 18.9668 5.47188 17.8491 6.2862 17.0347C7.20317 16.1177 7.20317 14.627 6.2862 13.7111C5.36924 12.7941 3.87863 12.7953 2.96167 13.7111H2.96174Z" fill="white"/>
</g>
<defs>
<clipPath id="clip0_10_27345">
<rect width="18.2857" height="18.2857" fill="white" transform="translate(0.854492 0.857117)"/>
</clipPath>
</defs>
</svg>
