<svg width="16" height="16" viewBox="0 0 16 16" fill="none" xmlns="http://www.w3.org/2000/svg">
<path d="M8.00481 12.9876C8.00485 13.1255 7.96557 13.2606 7.89159 13.3771C7.81762 13.4935 7.71199 13.5865 7.58709 13.645C7.46227 13.7037 7.32331 13.7257 7.18647 13.7083C7.04963 13.6909 6.92057 13.6349 6.81441 13.5468L2.84222 10.2553H0.726594C0.325312 10.2556 0 9.93009 0 9.52887V6.63406C0 6.23265 0.325375 5.90728 0.726562 5.90728H2.84238L6.81459 2.61572C6.92072 2.52758 7.0498 2.47155 7.18667 2.45423C7.32354 2.4369 7.4625 2.45899 7.58725 2.5179C7.71212 2.57651 7.81772 2.66947 7.8917 2.78589C7.96567 2.90232 8.00498 3.0374 8.005 3.17534L8.00481 12.9876ZM9.84819 5.78572C10.0923 5.54165 10.488 5.54165 10.7321 5.78572L14.2676 9.32125C14.5117 9.56534 14.5117 9.96106 14.2676 10.2052C14.0235 10.4492 13.6278 10.4492 13.3837 10.2052L9.84819 6.66959C9.60413 6.42553 9.60413 6.02981 9.84819 5.78572Z" fill="#B1B5C2"/>
<path d="M9.84809 10.2051C9.60402 9.96105 9.60402 9.56533 9.84809 9.32124L13.3836 5.78571C13.6277 5.54165 14.0234 5.54165 14.2675 5.78571C14.5116 6.0298 14.5116 6.42552 14.2675 6.66958L10.732 10.2051C10.4879 10.4492 10.0922 10.4492 9.84809 10.2051Z" fill="#B1B5C2"/>
</svg>
