<svg width="22" height="17" viewBox="0 0 22 17" fill="none" xmlns="http://www.w3.org/2000/svg">
<path d="M12.2106 4.90439L12.2118 4.96804L9.0574 9.55054C8.54657 9.52718 8.03414 9.61701 7.54749 9.81723C7.33564 9.90333 7.13338 10.0113 6.94401 10.1395L0.0168699 7.28447C0.0168699 7.28447 -0.143467 9.92158 0.52447 11.8867L5.42161 13.9074C5.66332 15.0064 6.42069 15.9701 7.53339 16.4334C8.40877 16.7971 9.39274 16.7985 10.2692 16.4373C11.1456 16.0761 11.8428 15.3818 12.2077 14.5069C12.4024 14.0409 12.4963 13.5389 12.4833 13.0341L16.9925 9.80918L17.1033 9.81119C19.8044 9.81119 22 7.60917 22 4.90439C22 2.1996 19.8085 0.00564001 17.1033 0C14.4033 0 12.2065 2.1996 12.2065 4.90439H12.2106ZM11.4532 14.1903C10.8674 15.6003 9.25117 16.2638 7.84641 15.6784C7.22303 15.4164 6.71775 14.9344 6.42674 14.324L8.02084 14.9847C8.2671 15.0872 8.53114 15.1402 8.79788 15.1406C9.06462 15.141 9.32884 15.0889 9.57542 14.9872C9.822 14.8854 10.0461 14.7361 10.235 14.5478C10.4238 14.3594 10.5737 14.1356 10.6761 13.8893C10.8833 13.3916 10.8846 12.832 10.6795 12.3334C10.4744 11.8347 10.0798 11.4379 9.58232 11.2301L7.9306 10.5472C8.56631 10.3055 9.28904 10.2974 9.96503 10.5782C10.6499 10.8614 11.1736 11.3948 11.454 12.0769C11.7344 12.7589 11.7328 13.511 11.45 14.1903M17.1077 8.17358C16.2421 8.17123 15.4128 7.82594 14.8013 7.21333C14.1899 6.60073 13.8461 5.77075 13.8454 4.90519C13.8463 4.03978 14.1902 3.21 14.8016 2.59757C15.4131 1.98514 16.2423 1.63996 17.1077 1.63762C17.9732 1.63975 18.8027 1.98483 19.4143 2.59729C20.0259 3.20974 20.3699 4.03964 20.3708 4.90519C20.3701 5.77089 20.0262 6.60099 19.4146 7.21362C18.8029 7.82625 17.9734 8.17144 17.1077 8.17358ZM14.6632 4.89996C14.6626 4.24962 14.9203 3.62568 15.3796 3.16526C15.8389 2.70484 16.4622 2.44561 17.1125 2.44454C18.4641 2.44454 19.5635 3.54434 19.5635 4.89996C19.5638 5.55043 19.3058 6.17441 18.8462 6.6347C18.3866 7.095 17.763 7.35393 17.1125 7.35457C16.4623 7.35361 15.839 7.09453 15.3796 6.63427C14.9203 6.17402 14.6628 5.55022 14.6632 4.89996Z" fill="white"/>
</svg>
