<svg width="24" height="20" viewBox="0 0 24 20" fill="none" xmlns="http://www.w3.org/2000/svg">
<g clip-path="url(#clip0_10_39286)">
<path d="M23.2729 13.9604L19.2 12.1875V19.5H23.4C23.7315 19.5 24 19.2273 24 18.8906V15.0805C24 14.842 23.9311 14.6088 23.8019 14.4097C23.6726 14.2106 23.4887 14.0543 23.2729 13.9604ZM0 15.0805V18.8906C0 19.2273 0.2685 19.5 0.6 19.5H4.8V12.1875L0.727125 13.9604C0.511314 14.0543 0.327393 14.2106 0.198146 14.4097C0.0688986 14.6088 4.96503e-06 14.842 0 15.0805ZM17.4172 9.39498L15.6 8.28744V3.90867C15.6 3.58533 15.4736 3.2757 15.2483 3.0468L12.4241 0.178529C12.1898 -0.0595096 11.8099 -0.0595096 11.5759 0.178529L8.75175 3.0468C8.52675 3.27531 8.4 3.58533 8.4 3.90867V8.28744L6.58275 9.39498C6.40503 9.50325 6.25794 9.6564 6.15582 9.83955C6.05367 10.0227 6 10.2296 6 10.4401V19.5H9.6V15.8437C9.6 14.4974 10.6748 13.4062 12 13.4062C13.3253 13.4062 14.4 14.4974 14.4 15.8437V19.5H18V10.4401C18 10.012 17.7787 9.61512 17.4172 9.39498Z" fill="#B5E5C3"/>
</g>
<defs>
<clipPath id="clip0_10_39286">
<rect width="24" height="19.5" fill="white"/>
</clipPath>
</defs>
</svg>
