<svg width="20" height="20" viewBox="0 0 20 20" fill="none" xmlns="http://www.w3.org/2000/svg">
<path d="M17.5584 4.35832C16.2167 4.22499 14.875 4.12499 13.525 4.04999V4.04166L13.3417 2.95832C13.2167 2.19166 13.0334 1.04166 11.0834 1.04166H8.90005C6.95838 1.04166 6.77505 2.14166 6.64172 2.94999L6.46672 4.01666C5.69172 4.06666 4.91672 4.11666 4.14172 4.19166L2.44172 4.35832C2.09172 4.39166 1.84172 4.69999 1.87505 5.04166C1.90838 5.38332 2.20838 5.63332 2.55838 5.59999L4.25838 5.43332C8.62505 4.99999 13.0251 5.16666 17.4417 5.60832C17.4667 5.60832 17.4834 5.60832 17.5084 5.60832C17.8251 5.60832 18.1 5.36666 18.1334 5.04166C18.1584 4.69999 17.9084 4.39166 17.5584 4.35832Z" fill="#B1B5C2"/>
<path d="M16.025 6.78334C15.825 6.57501 15.55 6.45834 15.2666 6.45834H4.73329C4.44995 6.45834 4.16662 6.57501 3.97495 6.78334C3.78329 6.99168 3.67495 7.27501 3.69162 7.56668L4.20829 16.1167C4.29995 17.3833 4.41662 18.9667 7.32495 18.9667H12.675C15.5833 18.9667 15.7 17.3917 15.7916 16.1167L16.3083 7.57501C16.325 7.27501 16.2166 6.99168 16.025 6.78334ZM11.3833 14.7917H8.60829C8.26662 14.7917 7.98329 14.5083 7.98329 14.1667C7.98329 13.825 8.26662 13.5417 8.60829 13.5417H11.3833C11.725 13.5417 12.0083 13.825 12.0083 14.1667C12.0083 14.5083 11.725 14.7917 11.3833 14.7917ZM12.0833 11.4583H7.91662C7.57495 11.4583 7.29162 11.175 7.29162 10.8333C7.29162 10.4917 7.57495 10.2083 7.91662 10.2083H12.0833C12.425 10.2083 12.7083 10.4917 12.7083 10.8333C12.7083 11.175 12.425 11.4583 12.0833 11.4583Z" fill="#B1B5C2"/>
</svg>
