<svg width="22" height="14" viewBox="0 0 22 14" fill="none" xmlns="http://www.w3.org/2000/svg">
<path d="M12.001 14C4.484 14 0.201824 8.74514 0 0H3.76393C3.88395 6.4183 6.66054 9.13478 8.85891 9.69701V0H12.4046V5.53319C14.5866 5.29939 16.856 2.74991 17.6251 0H21.1654C20.8781 1.43717 20.3035 2.79881 19.4774 4.00028C18.652 5.20081 17.5925 6.21531 16.365 6.98053C17.7384 7.67701 18.9507 8.66274 19.9216 9.87241C20.8933 11.0831 21.6017 12.4899 22 14H18.0997C17.2651 11.3392 15.1758 9.27951 12.4156 8.99006V14H12.001Z" fill="white"/>
</svg>
