<svg width="20" height="20" viewBox="0 0 20 20" fill="" xmlns="http://www.w3.org/2000/svg">
<path d="M18.3334 9.14166V10.8583C18.3334 11.3167 17.9667 11.6917 17.5 11.7083H15.8667C14.9667 11.7083 14.1417 11.05 14.0667 10.15C14.0167 9.625 14.2167 9.13333 14.5667 8.79166C14.875 8.475 15.3 8.29166 15.7667 8.29166H17.5C17.9667 8.30833 18.3334 8.68333 18.3334 9.14166Z" fill="#fff"/>
<path d="M17.0583 12.9583H15.8666C14.2833 12.9583 12.95 11.7667 12.8166 10.25C12.7416 9.38333 13.0583 8.51667 13.6916 7.9C14.225 7.35 14.9666 7.04167 15.7666 7.04167H17.0583C17.3 7.04167 17.5 6.84167 17.475 6.6C17.2916 4.575 15.95 3.19167 13.9583 2.95833C13.7583 2.925 13.55 2.91667 13.3333 2.91667H5.83329C5.59996 2.91667 5.37496 2.93333 5.15829 2.96667C3.03329 3.23333 1.66663 4.81667 1.66663 7.08333V12.9167C1.66663 15.2167 3.53329 17.0833 5.83329 17.0833H13.3333C15.6666 17.0833 17.275 15.625 17.475 13.4C17.5 13.1583 17.3 12.9583 17.0583 12.9583ZM10.8333 8.125H5.83329C5.49163 8.125 5.20829 7.84167 5.20829 7.5C5.20829 7.15833 5.49163 6.875 5.83329 6.875H10.8333C11.175 6.875 11.4583 7.15833 11.4583 7.5C11.4583 7.84167 11.175 8.125 10.8333 8.125Z" fill="#fff"/>
</svg>
