<svg width="24" height="19" viewBox="0 0 24 19" fill="" xmlns="http://www.w3.org/2000/svg">
<g clip-path="url(#clip0_10_21238)">
<path fill-rule="evenodd" clip-rule="evenodd" d="M10.432 4.6875L11.3454 5.89615C11.6795 6.33833 12.3256 6.33833 12.6597 5.89615L13.5703 4.69109C18.9652 5.29312 23.2457 9.05252 23.9881 15.8431C24.1178 17.0289 23.1682 18.0019 22.016 18.0019C21.0845 18.0019 20.3368 17.2293 20.201 16.2748C19.4684 11.1248 16.0763 8.49448 12.0025 8.49448C7.91772 8.49448 4.51836 11.0132 3.79816 16.2737C3.66736 17.2292 2.91962 18.0019 1.98789 18.0019C0.835684 18.0019 -0.113484 17.0286 0.011001 15.8422C0.739478 8.89967 5.02611 5.26603 10.432 4.6875Z" fill=""/>
<path d="M11.6351 4.76286L9.4903 0.637406C9.32494 0.319366 9.58693 -0.0559422 9.93037 0.00696913L11.9298 0.373247C11.9779 0.382054 12.0271 0.382054 12.0752 0.373247L14.0746 0.00696913C14.4181 -0.0559422 14.68 0.319366 14.5147 0.637406L12.3699 4.76286C12.2123 5.06589 11.7927 5.06589 11.6351 4.76286Z" fill=""/>
</g>
<defs>
<clipPath id="clip0_10_21238">
<rect width="24" height="19" fill="white"/>
</clipPath>
</defs>
</svg>
