<svg width="23" height="23" viewBox="0 0 23 23" fill="none" xmlns="http://www.w3.org/2000/svg">
<mask id="mask0_10_31306" style="mask-type:luminance" maskUnits="userSpaceOnUse" x="0" y="0" width="23" height="23">
<path d="M22.3684 0.697754H0.922852V22.6794H22.3684V0.697754Z" fill="white"/>
</mask>
<g mask="url(#mask0_10_31306)">
<path d="M11.6455 11.9568L0.922852 7.66705L11.6455 16.5136L22.3682 7.66705L11.6455 11.9568Z" fill="url(#paint0_linear_10_31306)"/>
<path d="M11.6457 18.26L4.67529 14.1011L11.6457 22.6794L18.615 14.1011L11.6457 18.26Z" fill="url(#paint1_linear_10_31306)"/>
<path d="M11.1344 2.26727C11.2949 1.77268 11.9939 1.77268 12.1543 2.26727L12.2466 2.54972C12.3181 2.77064 12.5248 2.92012 12.7567 2.92012H13.0545C13.5733 2.92012 13.7897 3.58506 13.3688 3.89061L13.1281 4.06536C12.9402 4.20165 12.8621 4.44346 12.9336 4.66438L13.0259 4.94793C13.1864 5.44142 12.6203 5.85246 12.2005 5.54692L11.9598 5.37217C11.7718 5.23588 11.518 5.23588 11.33 5.37217L11.0893 5.54692C10.6684 5.85246 10.1035 5.44142 10.2639 4.94793L10.3562 4.66438C10.4277 4.44346 10.3486 4.20165 10.1606 4.06536L9.91987 3.89061C9.50002 3.58506 9.71659 2.92012 10.2354 2.92012H10.5332C10.7651 2.92012 10.9717 2.77064 11.0432 2.54972L11.1344 2.26727Z" fill="url(#paint2_linear_10_31306)"/>
<path d="M9.64867 6.72183C9.77067 6.34484 10.3048 6.34484 10.4279 6.72183C10.4818 6.89109 10.6389 7.00431 10.817 7.00431C11.2137 7.00431 11.3786 7.51208 11.0577 7.74618C10.9137 7.85059 10.8543 8.03526 10.9093 8.20342C11.0313 8.5815 10.5994 8.89473 10.2784 8.66173C10.1356 8.55731 9.94097 8.55731 9.79699 8.66173C9.47605 8.89473 9.04412 8.5815 9.16721 8.20342C9.22217 8.03526 9.16173 7.85059 9.01775 7.74618C8.69682 7.51208 8.86168 7.00431 9.25845 7.00431C9.4365 7.00431 9.59371 6.89109 9.64867 6.72183Z" fill="url(#paint3_linear_10_31306)"/>
<path d="M12.8644 6.72183C12.9864 6.34484 13.5206 6.34484 13.6426 6.72183C13.6975 6.89109 13.8547 7.00431 14.0327 7.00431C14.4295 7.00431 14.5944 7.51208 14.2734 7.74618C14.1294 7.85059 14.069 8.03526 14.124 8.20342C14.2471 8.5815 13.8151 8.89473 13.4942 8.66173C13.3502 8.55731 13.1557 8.55731 13.0128 8.66173C12.6919 8.89473 12.26 8.5815 12.382 8.20342C12.4369 8.03526 12.3776 7.85059 12.2336 7.74618C11.9126 7.51208 12.0775 7.00431 12.4743 7.00431C12.6523 7.00431 12.8095 6.89109 12.8644 6.72183Z" fill="url(#paint4_linear_10_31306)"/>
</g>
<defs>
<linearGradient id="paint0_linear_10_31306" x1="11.6455" y1="7.66705" x2="11.6455" y2="16.5136" gradientUnits="userSpaceOnUse">
<stop stop-color="#F09A64"/>
<stop offset="1" stop-color="#F4B874"/>
</linearGradient>
<linearGradient id="paint1_linear_10_31306" x1="11.6457" y1="14.1011" x2="11.6457" y2="22.6794" gradientUnits="userSpaceOnUse">
<stop stop-color="#F09A64"/>
<stop offset="1" stop-color="#F4B874"/>
</linearGradient>
<linearGradient id="paint2_linear_10_31306" x1="11.6443" y1="1.89688" x2="11.6443" y2="5.65243" gradientUnits="userSpaceOnUse">
<stop stop-color="#F09A64"/>
<stop offset="1" stop-color="#F4B874"/>
</linearGradient>
<linearGradient id="paint3_linear_10_31306" x1="10.0377" y1="6.43936" x2="10.0377" y2="8.74196" gradientUnits="userSpaceOnUse">
<stop stop-color="#F09A64"/>
<stop offset="1" stop-color="#F4B874"/>
</linearGradient>
<linearGradient id="paint4_linear_10_31306" x1="13.2535" y1="6.43936" x2="13.2535" y2="8.74196" gradientUnits="userSpaceOnUse">
<stop stop-color="#F09A64"/>
<stop offset="1" stop-color="#F4B874"/>
</linearGradient>
</defs>
</svg>
