<svg width="29" height="27" viewBox="0 0 29 27" fill="none" xmlns="http://www.w3.org/2000/svg">
<mask id="mask0_10_31280" style="mask-type:luminance" maskUnits="userSpaceOnUse" x="0" y="0" width="29" height="27">
<path d="M28.409 0.499634H0.382324V26.8777H28.409V0.499634Z" fill="white"/>
</mask>
<g mask="url(#mask0_10_31280)">
<path d="M13.612 2.91213C13.8582 2.15266 14.9331 2.15266 15.1793 2.91213L16.0608 5.62576C16.1718 5.96538 16.4883 6.19509 16.8455 6.19509H19.6987C20.4967 6.19509 20.8286 7.21724 20.1823 7.68654L17.8743 9.36375C17.5852 9.57367 17.4643 9.94518 17.5753 10.2848L18.4568 12.9984C18.7041 13.7579 17.8347 14.3899 17.1884 13.9205L14.8804 12.2433C14.5913 12.0334 14.2 12.0334 13.9109 12.2433L11.6029 13.9205C10.9566 14.3899 10.0872 13.7579 10.3345 12.9984L11.216 10.2848C11.3259 9.94518 11.205 9.57367 10.917 9.36375L8.60788 7.68654C7.96272 7.21724 8.29462 6.19509 9.09256 6.19509H11.9458C12.303 6.19509 12.6195 5.96538 12.7295 5.62576L13.612 2.91213Z" fill="url(#paint0_linear_10_31280)"/>
<path d="M14.3956 20.9327L0.382324 15.3373L14.3956 26.8777L28.409 15.3373L14.3956 20.9327Z" fill="url(#paint1_linear_10_31280)"/>
</g>
<defs>
<linearGradient id="paint0_linear_10_31280" x1="14.3957" y1="2.3428" x2="14.3957" y2="14.081" gradientUnits="userSpaceOnUse">
<stop stop-color="#F09A64"/>
<stop offset="1" stop-color="#F4B874"/>
</linearGradient>
<linearGradient id="paint1_linear_10_31280" x1="14.3956" y1="15.3373" x2="14.3956" y2="26.8777" gradientUnits="userSpaceOnUse">
<stop stop-color="#F09A64"/>
<stop offset="1" stop-color="#F4B874"/>
</linearGradient>
</defs>
</svg>
