<svg width="20" height="21" viewBox="0 0 20 21" fill="none" xmlns="http://www.w3.org/2000/svg">
<path d="M9.16996 1.22992C9.32383 0.747418 10.0052 0.747418 10.159 1.22992L10.9943 3.78416C11.0603 3.99958 11.2692 4.14577 11.489 4.14577H14.1817C14.6873 4.14577 14.8962 4.79533 14.4895 5.09318L12.3133 6.67147C12.1265 6.80446 12.0495 7.04075 12.1264 7.25727L12.9507 9.81155C13.1046 10.294 12.5551 10.6941 12.1484 10.3963L9.97227 8.81798C9.78543 8.68499 9.54356 8.68499 9.35672 8.81798L7.18055 10.3963C6.77389 10.6941 6.22437 10.294 6.37824 9.81155L7.21356 7.25727C7.2795 7.04075 7.20251 6.80446 7.01567 6.67147L4.8505 5.09318C4.43285 4.79533 4.6527 4.14577 5.15828 4.14577H7.83998C8.07079 4.14577 8.2687 3.99958 8.33465 3.78416L9.16996 1.22992Z" fill="url(#paint0_linear_2205_1383)"/>
<path d="M2.49856 12.1977C2.65243 11.7152 3.33389 11.7152 3.48776 12.1977L3.78453 13.1044C3.85048 13.3199 4.05925 13.4661 4.27907 13.4661H5.23527C5.74084 13.4661 5.9497 14.1145 5.54304 14.4124L4.77374 14.974C4.58689 15.107 4.50991 15.3433 4.58684 15.5587L4.87262 16.4655C5.03748 16.948 4.47697 17.3491 4.07031 17.0513L3.30087 16.4907C3.11402 16.3566 2.87229 16.3566 2.68545 16.4907L1.91601 17.0513C1.49836 17.3491 0.948827 16.948 1.1027 16.4655L1.39947 15.5587C1.47641 15.3433 1.39942 15.107 1.21258 14.974L0.443275 14.4124C0.0256233 14.1145 0.245472 13.4661 0.751051 13.4661H1.69625C1.92705 13.4661 2.12485 13.3199 2.20178 13.1044L2.49856 12.1977Z" fill="url(#paint1_linear_2205_1383)"/>
<path d="M9.1706 15.0585C9.32447 14.576 10.0058 14.576 10.1597 15.0585L10.4564 15.9653C10.5334 16.1807 10.7313 16.3269 10.9511 16.3269H11.9073C12.4129 16.3269 12.6326 16.9764 12.2149 17.2743L11.4456 17.8348C11.2588 17.9678 11.1818 18.2041 11.2587 18.4195L11.5555 19.3273C11.7094 19.8087 11.1599 20.2099 10.7422 19.9121L9.97291 19.3515C9.78606 19.2185 9.5442 19.2185 9.35735 19.3515L8.58805 19.9121C8.18139 20.2099 7.62088 19.8087 7.78574 19.3273L8.07151 18.4195C8.14845 18.2041 8.07146 17.9678 7.88462 17.8348L7.11518 17.2743C6.70852 16.9764 6.91738 16.3269 7.42295 16.3269H8.37915C8.59897 16.3269 8.80788 16.1807 8.87382 15.9653L9.1706 15.0585Z" fill="url(#paint2_linear_2205_1383)"/>
<path d="M15.8414 12.1977C15.9952 11.7152 16.6877 11.7152 16.8416 12.1977L17.1383 13.1044C17.2043 13.3199 17.4021 13.4661 17.6329 13.4661H18.5891C19.0946 13.4661 19.3035 14.1145 18.8968 14.4124L18.1164 14.974C17.9406 15.107 17.8637 15.3433 17.9296 15.5587L18.2264 16.4655C18.3803 16.948 17.8306 17.3491 17.424 17.0513L16.6547 16.4907C16.4678 16.3566 16.2151 16.3566 16.0393 16.4907L15.2588 17.0513C14.8522 17.3491 14.3026 16.948 14.4565 16.4655L14.7533 15.5587C14.8192 15.3433 14.7422 15.107 14.5664 14.974L13.7861 14.4124C13.3794 14.1145 13.5883 13.4661 14.0939 13.4661H15.0501C15.2809 13.4661 15.4786 13.3199 15.5446 13.1044L15.8414 12.1977Z" fill="url(#paint3_linear_2205_1383)"/>
<defs>
<linearGradient id="paint0_linear_2205_1383" x1="9.6645" y1="0.868317" x2="9.6645" y2="10.4985" gradientUnits="userSpaceOnUse">
<stop stop-color="#F09A64"/>
<stop offset="1" stop-color="#F4B874"/>
</linearGradient>
<linearGradient id="paint1_linear_2205_1383" x1="2.99316" y1="11.8361" x2="2.99316" y2="17.1535" gradientUnits="userSpaceOnUse">
<stop stop-color="#F09A64"/>
<stop offset="1" stop-color="#F4B874"/>
</linearGradient>
<linearGradient id="paint2_linear_2205_1383" x1="9.66508" y1="14.6969" x2="9.66508" y2="20.0143" gradientUnits="userSpaceOnUse">
<stop stop-color="#F09A64"/>
<stop offset="1" stop-color="#F4B874"/>
</linearGradient>
<linearGradient id="paint3_linear_2205_1383" x1="16.347" y1="11.8361" x2="16.347" y2="17.1535" gradientUnits="userSpaceOnUse">
<stop stop-color="#F09A64"/>
<stop offset="1" stop-color="#F4B874"/>
</linearGradient>
</defs>
</svg>
