<svg width="20" height="21" viewBox="0 0 20 21" fill="none" xmlns="http://www.w3.org/2000/svg">
<path d="M18.4455 7.84857L14.6447 10.3824C14.6836 10.6322 14.704 10.8882 14.704 11.1487C14.704 11.6017 14.6426 12.0407 14.5283 12.458L18.2478 14.9377C19.239 12.7138 19.3163 10.1468 18.4455 7.84857Z" fill="white"/>
<path d="M14.2789 9.1357L17.9232 6.70618C17.1352 5.25693 15.9714 4.03639 14.5575 3.18021L12.1416 6.804C13.0833 7.3265 13.8383 8.1462 14.2789 9.1357Z" fill="white"/>
<path d="M9.73856 7.42488C7.68525 7.42488 6.01465 9.09549 6.01465 11.1488C6.01465 13.2021 7.68525 14.8727 9.73856 14.8727C11.792 14.8727 13.4625 13.2021 13.4625 11.1488C13.4625 9.09549 11.792 7.42488 9.73856 7.42488ZM9.73856 13.6314C8.36965 13.6314 7.25595 12.5177 7.25595 11.1488C7.25595 9.77989 8.36965 8.66618 9.73856 8.66618C11.1075 8.66618 12.2212 9.77989 12.2212 11.1488C12.2212 12.5177 11.1075 13.6314 9.73856 13.6314Z" fill="white"/>
<path d="M11.832 15.651L14.2595 19.292C15.6531 18.5158 16.8303 17.3858 17.6644 16.0399L14.0422 13.625C13.5326 14.5068 12.7599 15.218 11.832 15.651Z" fill="white"/>
<path d="M9.73984 12.3901C10.4253 12.3901 10.9811 11.8343 10.9811 11.1488C10.9811 10.4632 10.4253 9.90749 9.73984 9.90749C9.05423 9.90749 8.49854 10.4632 8.49854 11.1488C8.49854 11.8343 9.05423 12.3901 9.73984 12.3901Z" fill="white"/>
<path d="M8.87893 16.0393L6.354 19.8265C8.51557 20.6688 10.9576 20.6702 13.1226 19.8265L10.5977 16.0393C10.0299 16.1387 9.44726 16.1389 8.87893 16.0393Z" fill="white"/>
<path d="M10.9613 6.33568L13.4475 2.60638C12.9145 2.3748 12.359 2.19378 11.788 2.06563C11.1986 3.25539 10.3417 4.36711 9.73987 5.2644C9.13977 4.36909 8.28271 3.25857 7.69173 2.06563C7.12076 2.19389 6.56528 2.37491 6.03223 2.60627L8.51847 6.33568C9.30343 6.13642 10.1477 6.12916 10.9613 6.33568Z" fill="white"/>
<path d="M5.43622 13.625L1.81396 16.0399C2.64762 17.385 3.82463 18.5154 5.21893 19.292L7.64625 15.651C6.71852 15.218 5.94564 14.5068 5.43622 13.625Z" fill="white"/>
<path d="M4.83313 10.3824L1.03239 7.84857C0.162795 10.1438 0.237531 12.7108 1.23011 14.9377L4.94952 12.458C4.76774 11.7936 4.72388 11.0847 4.83313 10.3824Z" fill="white"/>
<path d="M7.33778 6.804L4.92188 3.18021C3.51087 4.03474 2.34573 5.25396 1.55615 6.70618L5.2005 9.1357C5.64112 8.1462 6.39597 7.3265 7.33778 6.804Z" fill="white"/>
<path d="M10.9811 1.9166C10.9811 1.2311 10.4253 0.675293 9.73984 0.675293C9.05434 0.675293 8.49854 1.2311 8.49854 1.9166C8.49854 2.6021 9.73984 4.39921 9.73984 4.39921C9.73984 4.39921 10.9811 2.6021 10.9811 1.9166Z" fill="white"/>
</svg>
