<svg width="24" height="28" viewBox="0 0 24 28" fill="" xmlns="http://www.w3.org/2000/svg">
<g clip-path="url(#clip0_10_21243)">
<path d="M12 6.75927L7.50781 0H16.4922L12 6.75927Z" fill=""/>
<path d="M14.4 14.6121V17.8264H12.8V14.6121H13.6H14.4Z" fill=""/>
<path d="M11.2 14.6121V17.8264H9.60004V14.6121H10.4H11.2Z" fill=""/>
<path d="M13.6 11.3979C14.0414 11.3979 14.4 11.7581 14.4 12.2015C14.4 12.6448 14.0414 13.005 13.6 13.005H12.8V12.2015C12.8 11.7581 13.1586 11.3979 13.6 11.3979Z" fill=""/>
<path d="M10.4 11.3979C10.8414 11.3979 11.2 11.7581 11.2 12.2015V13.005H10.4C9.95866 13.005 9.60004 12.6448 9.60004 12.2015C9.60004 11.7581 9.95866 11.3979 10.4 11.3979Z" fill=""/>
<path d="M24 15.4157C24 17.3229 23.5448 19.1212 22.7564 20.7258L19.981 19.1161C20.5013 17.9887 20.8 16.738 20.8 15.4157C20.8 14.0934 20.5013 12.8427 19.981 11.7153L22.7592 10.1039C23.5533 11.7164 24 13.5226 24 15.4157Z" fill=""/>
<path d="M2.03519 22.1224L4.81935 20.508C6.26938 22.5647 8.56692 23.9744 11.2 24.2143V27.4286C7.3858 27.1741 4.05103 25.1346 2.03519 22.1224Z" fill=""/>
<path d="M-3.8147e-06 15.4157C-3.8147e-06 13.5227 0.446557 11.7166 1.24064 10.1042L4.01898 11.7152C3.49861 12.8427 3.2 14.0935 3.2 15.4157C3.2 16.7379 3.49861 17.9887 4.01893 19.116L1.24336 20.7254C0.45509 19.1209 -3.8147e-06 17.3228 -3.8147e-06 15.4157Z" fill=""/>
<path d="M19.1806 20.5081L21.9647 22.1226C19.9489 25.1348 16.6142 27.1741 12.8 27.4286V24.2143C15.4331 23.9744 17.7306 22.5648 19.1806 20.5081Z" fill=""/>
<path d="M4.80002 15.4157C4.80002 11.4277 8.02973 8.18359 12 8.18359C15.9703 8.18359 19.2 11.4277 19.2 15.4157C19.2 19.4038 15.9703 22.6479 12 22.6479C8.02973 22.6479 4.80002 19.4038 4.80002 15.4157ZM8.00002 13.005V19.4336H16V13.005H15.8527C15.9423 12.7524 16 12.4845 16 12.2015C16 10.8721 14.9234 9.79074 13.6 9.79074C12.9831 9.79074 12.4256 10.0322 12 10.4177C11.5744 10.0322 11.0169 9.79074 10.4 9.79074C9.07661 9.79074 8.00002 10.8721 8.00002 12.2015C8.00002 12.4845 8.05773 12.7524 8.14738 13.005H8.00002Z" fill=""/>
<path d="M21.952 8.7139L19.184 10.321C17.9361 8.56931 16.08 7.2836 13.92 6.80145L15.824 3.98895C18.368 4.85681 20.496 6.54426 21.952 8.7139Z" fill=""/>
<path d="M8.17602 3.98895L10.08 6.80145C7.92007 7.2836 6.06402 8.56926 4.81607 10.321L2.04812 8.71385C3.50402 6.54426 5.63207 4.85681 8.17602 3.98895Z" fill=""/>
</g>
<defs>
<clipPath id="clip0_10_21243">
<rect width="24" height="28" fill="white"/>
</clipPath>
</defs>
</svg>
