<svg width="24" height="23" viewBox="0 0 24 23" fill="none" xmlns="http://www.w3.org/2000/svg">
<mask id="mask0_10_31297" style="mask-type:luminance" maskUnits="userSpaceOnUse" x="0" y="0" width="24" height="23">
<path d="M23.4525 0.697754H0.907227V22.6794H23.4525V0.697754Z" fill="white"/>
</mask>
<g mask="url(#mask0_10_31297)">
<path d="M12.1794 11.4072L0.907227 6.89767L12.1794 16.1981L23.4527 6.89767L12.1794 11.4072Z" fill="url(#paint0_linear_10_31297)"/>
<path d="M12.1806 18.0336L4.85303 13.6615L12.1806 22.6794L19.5071 13.6615L12.1806 18.0336Z" fill="url(#paint1_linear_10_31297)"/>
<path d="M11.644 2.34748C11.8133 1.82871 12.5475 1.82871 12.7168 2.34748L13.0663 3.42349C13.1421 3.65649 13.3587 3.81364 13.6027 3.81364H14.7347C15.2798 3.81364 15.5074 4.51267 15.0655 4.8336L14.15 5.49856C13.9522 5.64144 13.8697 5.89643 13.9455 6.12833L14.2951 7.20541C14.4633 7.72418 13.8697 8.15612 13.4279 7.83519L12.5124 7.17026C12.3145 7.02628 12.0474 7.02628 11.8496 7.17026L10.934 7.83519C10.4922 8.15612 9.89761 7.72418 10.0669 7.20541L10.4164 6.12833C10.4911 5.89643 10.4087 5.64144 10.2109 5.49856L9.29535 4.8336C8.85351 4.51267 9.08103 3.81364 9.62727 3.81364H10.7593C11.0033 3.81364 11.2198 3.65649 11.2945 3.42349L11.644 2.34748Z" fill="url(#paint2_linear_10_31297)"/>
</g>
<defs>
<linearGradient id="paint0_linear_10_31297" x1="12.1794" y1="6.89767" x2="12.1794" y2="16.1981" gradientUnits="userSpaceOnUse">
<stop stop-color="#F09A64"/>
<stop offset="1" stop-color="#F4B874"/>
</linearGradient>
<linearGradient id="paint1_linear_10_31297" x1="12.1806" y1="13.6615" x2="12.1806" y2="22.6794" gradientUnits="userSpaceOnUse">
<stop stop-color="#F09A64"/>
<stop offset="1" stop-color="#F4B874"/>
</linearGradient>
<linearGradient id="paint2_linear_10_31297" x1="12.1804" y1="1.9584" x2="12.1804" y2="7.94509" gradientUnits="userSpaceOnUse">
<stop stop-color="#F09A64"/>
<stop offset="1" stop-color="#F4B874"/>
</linearGradient>
</defs>
</svg>
