<svg width="9" height="8" viewBox="0 0 9 8" fill="none" xmlns="http://www.w3.org/2000/svg">
<path d="M8.1577 0.617788C8.1577 0.661536 8.14181 0.703824 8.11339 0.736915L5.3001 4.00002L8.11339 7.26316C8.14181 7.29625 8.1577 7.33854 8.1577 7.38229C8.1577 7.48285 8.07652 7.56441 7.97606 7.56441H6.82598C6.43428 7.56441 6.06219 7.39135 5.80952 7.09133L4.13717 5.10848L2.45399 7.0935C2.20097 7.39223 1.82957 7.56441 1.43855 7.56441H0.287109C0.186646 7.56441 0.105469 7.48285 0.105469 7.38229C0.105469 7.33854 0.121033 7.29625 0.149785 7.26316L2.96307 4.00002L0.149785 0.736915C0.121033 0.703824 0.105469 0.661536 0.105469 0.617788C0.105469 0.517191 0.186646 0.435669 0.287109 0.435669H1.43855C1.82957 0.435669 2.20097 0.60781 2.45399 0.906579L4.13717 2.89159L5.82237 0.903897C6.07437 0.60686 6.4434 0.435669 6.83206 0.435669H7.97606C8.07652 0.435669 8.1577 0.517191 8.1577 0.617788Z" fill="url(#paint0_linear_10_27390)"/>
<defs>
<linearGradient id="paint0_linear_10_27390" x1="4.13141" y1="0.435669" x2="4.13141" y2="7.56441" gradientUnits="userSpaceOnUse">
<stop stop-color="white"/>
<stop offset="1" stop-color="#98E1AB"/>
</linearGradient>
</defs>
</svg>
