<svg width="9" height="16" viewBox="0 0 9 16" fill="none" xmlns="http://www.w3.org/2000/svg">
<path d="M7.43778 0H5.1645C2.86134 0 0.537433 1.70069 0.537433 5.50019C0.537433 7.46825 1.37159 9.00106 2.90059 9.87275L0.101996 14.9381C-0.0306605 15.1777 -0.0340982 15.4492 0.0927456 15.6643C0.216589 15.8745 0.442996 16 0.698339 16H2.1139C2.4355 16 2.68628 15.8446 2.8065 15.5723L5.43043 10.44H5.62193V15.3603C5.62193 15.7071 5.91453 16 6.26084 16H7.49759C7.88593 16 8.15715 15.7288 8.15715 15.3405V0.700094C8.15718 0.287906 7.8614 0 7.43778 0ZM5.622 8.16019H5.28418C3.97434 8.16019 3.19234 7.091 3.19234 5.30009C3.19234 3.07325 4.18018 2.27984 5.10468 2.27984H5.622V8.16019Z" fill="white"/>
</svg>
